/* XPM */
static char *install_gui___[] = {
/* columns rows colors chars-per-pixel */
"16 16 135 2",
"   c #31332F",
".  c #3A3C38",
"X  c #3B3D39",
"o  c #40423F",
"O  c #41423F",
"+  c #4D504B",
"@  c #50524E",
"#  c #585B57",
"$  c #595B57",
"%  c #5B5D59",
"&  c #5C5D5A",
"*  c #5F605D",
"=  c #646662",
"-  c #70726E",
";  c #727570",
":  c #7D7F7A",
">  c #7D7C7C",
",  c #93191D",
"<  c #BC595A",
"1  c #BD595B",
"2  c #B17070",
"3  c #C25356",
"4  c #C35356",
"5  c #C65F62",
"6  c #C27E7C",
"7  c #80827E",
"8  c #8F7D98",
"9  c #868884",
"0  c #8C8E8A",
"q  c #8D8F8B",
"w  c #90928E",
"e  c #928C9F",
"r  c #939591",
"t  c #969893",
"y  c #979895",
"u  c #979995",
"i  c #989B95",
"p  c #999998",
"a  c #9B9C9A",
"s  c #9D9E9C",
"d  c #B68887",
"f  c #BF9693",
"g  c #9EA29B",
"h  c #9FA19C",
"j  c #A69FA2",
"k  c #A59EAB",
"l  c #A79FB0",
"z  c #B89DB2",
"x  c #A1A0A1",
"c  c #A2A3A0",
"v  c #A4A6A2",
"b  c #A4A6A3",
"n  c #A8ABA6",
"m  c #B7A5A0",
"M  c #B1B4AD",
"N  c #B1B4AF",
"B  c #ADA3B2",
"V  c #B3B4B2",
"C  c #B5B7B1",
"Z  c #B9BAB6",
"A  c #BDBEBD",
"S  c #C0A3A0",
"D  c #CDB5AF",
"F  c #CCC0B7",
"G  c #C1AFC0",
"H  c #C2C5C1",
"J  c #C3C5C3",
"K  c #C5C7C6",
"L  c #CAC7C7",
"P  c #C7CAC5",
"I  c #C6C9C6",
"U  c #C8C8C6",
"Y  c #C5C1C8",
"T  c #C6C8CB",
"R  c #C6CACD",
"E  c #C8C9CA",
"W  c #CCCDCC",
"Q  c #CDCDCC",
"!  c #D9CDC7",
"~  c #DCC1CA",
"^  c #D0C9CC",
"/  c #CED0CB",
"(  c #CFD1CC",
")  c #D6D0C5",
"_  c #D0D1CE",
"`  c #D1D3CE",
"'  c #D3D4CD",
"]  c #CBC1D2",
"[  c #CBC5D1",
"{  c #CDC6D2",
"}  c #D1CFD1",
"|  c LightGray",
" . c #D3D5D1",
".. c #D4D5D3",
"X. c #D4D6D2",
"o. c #D5D6D2",
"O. c #D6D7D3",
"+. c #D5D8D3",
"@. c #D6D8D3",
"#. c #D7D8D4",
"$. c #D7D9D4",
"%. c #D7D9D5",
"&. c #D8DAD7",
"*. c #DED1DF",
"=. c #E2D2CE",
"-. c #E1DFCD",
";. c #E8CDDA",
":. c #E1E4DF",
">. c #DBD5E2",
",. c #DFDCE8",
"<. c #E0E1E0",
"1. c #E7E9E4",
"2. c #E0E5EA",
"3. c #E9E5ED",
"4. c #EAECE8",
"5. c #ECEDEB",
"6. c #ECEEEA",
"7. c #EDEEEB",
"8. c #EDEFEB",
"9. c #ECEAEE",
"0. c #EEEFEC",
"q. c #EEEFED",
"w. c #EFEFEF",
"e. c #EFF0EE",
"r. c #EEE8F0",
"t. c #EDEAF0",
"y. c #F2F3F1",
"u. c #F2F0F3",
"i. c #F2F3F2",
"p. c #F4F5F3",
"a. c #F8F8F7",
"s. c #FAF8FA",
"d. c #FAF9FB",
"f. c #FBFAFB",
"g. c None",
/* pixels */
"g.g.g.g.g.g.g.g.g.g.p._ g.g.g.g.",
"g.g.g.w.| A a U a.W J $.g.g.g.g.",
"g.g.g.s $ V :.y.p.K I +.g.g.g.g.",
"g.g.g.& s p y c 8.w.8...g.g.g.g.",
"g.g.g.* ..p.p.&.w e.4...g.g.g.g.",
"g.g.g.b 8.w...8.v $.1...g.g.g.g.",
"g.g.g.O @ u H +.Z w :...g.g.g.g.",
"g.g.g.X t n 7 q $ : N ` g.g.g.g.",
"g.g.g.>   w 9 = . + i ` g.g.g.g.",
"g.B R ,.3.x O % - - g ( g.g.g.g.",
"g.=.-.2.d.d.j 2 f m ' d g.g.g.g.",
"G ;.! W } 9.{ < 4 4 5 , g.g.g.g.",
"{ r.^ g.L *.] C D 6 < S g.g.g.g.",
"Y d.y.E ) ~ z g.g M P w g.g.g.g.",
"g.9.r.>.T F 8 g.g.g.g.g.g.g.g.g.",
"g.g.k l e g.g.g.g.g.g.g.g.g.g.g."
};
