/* XPM */
static char *install_gui_16[] = {
/* columns rows colors chars-per-pixel */
"16 16 135 2 ",
"   c #313330",
".  c #3A3C38",
"X  c #3B3D39",
"o  c #40433E",
"O  c #414240",
"+  c #4D504B",
"@  c #50524E",
"#  c #595B57",
"$  c #5A5B58",
"%  c #5B5E59",
"&  c #5C5D5A",
"*  c #5F605D",
"=  c #646662",
"-  c #70726E",
";  c #737571",
":  c #7E7F7A",
">  c gray49",
",  c #93191E",
"<  c #BF494C",
"1  c #AB6564",
"2  c #C14D50",
"3  c #C4595B",
"4  c #C26668",
"5  c #C36869",
"6  c #80827E",
"7  c #C2807E",
"8  c #8F7E9A",
"9  c #868984",
"0  c #8D8E8C",
"q  c #8D908B",
"w  c #90928E",
"e  c #90928F",
"r  c #918C9E",
"t  c #939591",
"y  c #969894",
"u  c #979996",
"i  c #989995",
"p  c #989B95",
"a  c #999998",
"s  c #9B9C9A",
"d  c #9D9E9C",
"f  c #B78884",
"g  c #B78887",
"h  c #B29D98",
"j  c #9DA09A",
"k  c #9FA29C",
"l  c #A69FA2",
"z  c #A59FAA",
"x  c #A99EB0",
"c  c #B89EB4",
"v  c #A2A0A3",
"b  c #A2A4A1",
"n  c #A4A7A2",
"m  c #A4A6A3",
"M  c #A9ABA7",
"N  c #B1B3AF",
"B  c #B1B4AE",
"V  c #AEA3B3",
"C  c #B3B4B2",
"Z  c #B5B8B2",
"A  c #BABBB7",
"S  c #BDBEBD",
"D  c #C0A4A1",
"F  c #CDB5AF",
"G  c #CDC1B8",
"H  c #C2B0C1",
"J  c #C3C6C1",
"K  c #C3C5C3",
"L  c #C5C7C6",
"P  c #C7CAC4",
"I  c #C7C8C7",
"U  c #C8C9C7",
"Y  c #C4C2C9",
"T  c #CBC7C9",
"R  c #C8C6CC",
"E  c #C7C9CC",
"W  c #C7CBCD",
"Q  c #CDCDCC",
"!  c #CECECD",
"~  c #D6CFC5",
"^  c #DCC1CB",
"/  c #D1CBCD",
"(  c #D9CEC8",
")  c #CFD1CC",
"_  c #D0D2CD",
"`  c #D3D2CC",
"'  c #D1D3CE",
"]  c #D2D4CF",
"[  c #CBC5D1",
"{  c #CEC7D3",
"}  c #CCC1D4",
"|  c #D2D0D2",
" . c LightGray",
".. c #D4D6D2",
"X. c #D6D7D3",
"o. c #D4D5D4",
"O. c #D6D7D4",
"+. c #D7D8D3",
"@. c #D7D8D4",
"#. c #D6D9D4",
"$. c #D7D9D5",
"%. c #D8D9D5",
"&. c #D8DBD7",
"*. c #DFD1DF",
"=. c #E2D3CE",
"-. c #E2DFCE",
";. c #E9CDDA",
":. c #E2E4DF",
">. c #DCD5E2",
",. c #E0DCE9",
"<. c #E1E1E0",
"1. c #E7E9E5",
"2. c #E0E6EA",
"3. c #E8E5EC",
"4. c #EAECE8",
"5. c #ECEEEB",
"6. c #EDEEEB",
"7. c #EDEFEB",
"8. c #EEEFEC",
"9. c #EEEFED",
"0. c #EEECEF",
"q. c #EEEEEE",
"w. c #F0F1EE",
"e. c #EEE8F0",
"r. c #EEEAF1",
"t. c #F1F1F3",
"y. c #F2F4F1",
"u. c #F3F4F2",
"i. c #F4F5F3",
"p. c #F4F4F4",
"a. c #F5F6F4",
"s. c #F8F9F8",
"d. c #FAF9FB",
"f. c #FBFAFC",
"g. c None",
/* pixels */
"g.g.g.g.g.g.g.g.g.g.a.' g.g.g.g.",
"g.g.g.q.o.S s U s.Q K %.g.g.g.g.",
"g.g.g.d $ C <.u.a.I I #.g.g.g.g.",
"g.g.g.& d a y b q.8.7.+.g.g.g.g.",
"g.g.g.* o.i.u.&.w q.4.#.g.g.g.g.",
"g.g.g.m 8.q.#.7.b %.1...g.g.g.g.",
"g.g.g.O @ i J #.A t :...g.g.g.g.",
"g.g.g.X y M 6 q # : N ] g.g.g.g.",
"g.g.g.>   e 9 = X + p ' g.g.g.g.",
"g.V W ,.3.v o $ - ; k ) g.g.g.g.",
"g.=.-.2.s.f.l 1 f h ` g g.g.g.g.",
"H ;.( Q | r.{ 4 2 < 3 , g.g.g.g.",
"{ r./ g.T *.} Z F 7 5 D g.g.g.g.",
"Y f.t.R ~ ^ c g.k B I 0 g.g.g.g.",
"g.q.r.>.E G 8 g.g.g.g.g.g.g.g.g.",
"g.g.z x r g.g.g.g.g.g.g.g.g.g.g."
};
