/* XPM */
static char *install_gui[] = {
/* columns rows colors chars-per-pixel */
"32 32 142 2",
"   c #1B1B1B",
".  c #0C3E0C",
"X  c gray14",
"o  c #2C2C2C",
"O  c #333333",
"+  c #3B3B3B",
"@  c #004E00",
"#  c #006500",
"$  c #007500",
"%  c #384738",
"&  c #444444",
"*  c #4C4C4C",
"=  c #535353",
"-  c #5A5A5A",
";  c #626262",
":  c #646864",
">  c #6C6C6C",
",  c #727272",
"<  c #7D7D7D",
"1  c #008C00",
"2  c #029502",
"3  c #019B01",
"4  c #089908",
"5  c #00A300",
"6  c #0EA200",
"7  c #00AC00",
"8  c #0BAD00",
"9  c #0DA50D",
"0  c #13AD00",
"q  c #1FA50C",
"w  c #00B300",
"e  c #0AB600",
"r  c #00BA00",
"t  c #0EB50E",
"y  c #15B400",
"u  c #18B600",
"i  c #19B900",
"p  c #12AA12",
"a  c #1CA31C",
"s  c #11B711",
"d  c #25AC00",
"f  c #2AB000",
"g  c #2EBB00",
"h  c #36B400",
"j  c #3EB800",
"k  c #259B25",
"l  c #2A9B2A",
"z  c #31962C",
"x  c #38912B",
"c  c #309B30",
"v  c #2DB22D",
"b  c #32A032",
"n  c #39A639",
"m  c #4EAB00",
"M  c #46B800",
"N  c #52BD00",
"B  c #419138",
"V  c #4B9F3C",
"C  c #5B9D3E",
"Z  c #52B52B",
"A  c #4EA03A",
"S  c #57A13F",
"D  c #5BA23E",
"F  c #64A53F",
"G  c #6FA838",
"H  c #6BBA38",
"J  c #73B638",
"K  c #00C200",
"L  c #28C000",
"P  c #36C500",
"I  c #3AC100",
"U  c #2FC626",
"Y  c #35C435",
"T  c #37CB35",
"R  c #46CB00",
"E  c #4FC800",
"W  c #53D000",
"Q  c #6DC400",
"!  c #6ED800",
"~  c #4FD337",
"^  c #59D537",
"/  c #62C42D",
"(  c #65D937",
")  c #6EDC37",
"_  c #4AA04A",
"`  c #72B24F",
"'  c #6EAD6E",
"]  c #7DAB67",
"[  c #7CBE64",
"{  c #4FCD4F",
"}  c #50C650",
"|  c #56D256",
" . c #5DD556",
".. c #69CA4A",
"X. c #64D756",
"o. c #6DDA56",
"O. c #73DC56",
"+. c #7FE056",
"@. c #77D16B",
"#. c #75D375",
"$. c #74DA74",
"%. c #7CDE76",
"&. c #7ED77E",
"*. c #81E037",
"=. c #8ACA7E",
"-. c #86E176",
";. c #838383",
":. c #8C8C8C",
">. c #939393",
",. c #9D9D9D",
"<. c #85AB85",
"1. c #A5A5A5",
"2. c #AAAAAA",
"3. c #B2B2B2",
"4. c #BCBCBC",
"5. c #9EC39C",
"6. c #93DC91",
"7. c #99D798",
"8. c #A0D99E",
"9. c #ACDA9C",
"0. c #94E294",
"q. c #A0E0A0",
"w. c #AFE6AF",
"e. c #B6EBB6",
"r. c #C2C2C2",
"t. c #CCCCCC",
"y. c #C9DEC8",
"u. c #D3D3D3",
"i. c #DCDCDC",
"p. c #CEE2C8",
"a. c #D3E4C8",
"s. c #D5EBC8",
"d. c #D8E9CB",
"f. c #DDEDD5",
"g. c #DDEFDB",
"h. c #E1ECD4",
"j. c #E3E3E3",
"k. c #EBEBEB",
"l. c gray95",
"z. c #F8FBF3",
"x. c gray100",
"c. c None",
/* pixels */
"c.c.c.c.c.c.c.c.c.* * * * * * * * * * * * c.c.c.c.c.c.c.c.c.c.c.",
"c.c.c.c.c.& * * * * - ; ; ; ; - - - - - = & c.c.c.c.c.c.c.c.c.c.",
"c.c.c.& * ;.4.t.t.u.u.u.u.u.t.3.3.3.3.3.3.- o c.c.c.c.c.c.c.c.c.",
"c.c.+ - r.t.t.u.u.u.u.u.u.r.3.3.3.3.3.3.3.; o c.c.c.c.c.c.c.c.c.",
"c.O & 4.t.t.t.u.u.u.u.t.4.3.3.3.3.3.3.3.3.: o c.c.c.c.c.c.c.c.c.",
"c.O ,.t.t.t.t.t.t.t.t.4.3.3.3.3.3.3.3.3.r.> o c.c.c.c.c.c.c.c.c.",
"c.+ 3.r.t.t.t.t.t.t.r.3.3.3.3.3.3.3.r.u.u., o c.c.c.c.c.c.c.c.c.",
"c.+ 4.r.r.r.r.r.r.3.1.1.1.1.1.1.1.3.4.4.3.= X c.c.c.c.c.c.c.c.c.",
"c.& r.r.r.r.r.4.- O O O o O O o o o o o o X c.c.c.c.c.c.c.c.c.c.",
"c.& 4.4.4.4.r.3.* + + + + + + + o   c.c.c.c.c.c.c.c.c.c.c.c.c.c.",
"c.& 4.4.4.4.4.4.:.- - - - - - - = = * & c.c.c.c.c.c.c.c.c.c.c.c.",
"c.+ 3.3.4.4.3.3.3.3.3.3.3.3.r.r.4.4.2.- * c.c.c.c.c.c.c.c.c.c.c.",
"c.O ,.3.3.3.3.3.3.3.3.3.3.4.4.4.4.4.4.4.;.& c.c.c.c.c.c.c.c.c.c.",
"c.X - 3.3.3.3.3.3.3.3.3.3.3.4.4.4.4.4.4.4.= + c.c.c.c.c.c.c.c.c.",
"c.c.O >.3.4.4.4.4.4.4.4.4.4.4.4.4.4.3.3.3.>.% c.c.c.c.c.c.c.c.c.",
"c.c.  O :.4.4.4.r.r.r.r.r.r.4.4.4.4.4.<.l 3 9 a 2 1 3 c.c.c.c.c.",
"c.c.c.  o * > >.,.,.1.1.1.1.1.4.r.4.b 2 } q.e.e.w.&.a 2 c.c.c.c.",
"c.c.c.c.c.    X X o o o o o o * 4.c 4 #.0.0.7.8.6.0.0.v 2 c.c.c.",
"c.c.c.c.c.c.c.c.c.c.c.c.c.c.c.& _ 3 { $.%.@.g.x.=.-.%.$.p 1 c.c.",
"c.& * * * * = = = = = = = = = : 2 t |  .o...f.x.[ +.O.X.Y 2 1 c.",
"o - r.r.t.t.t.t.u.u.u.u.u.u.t.' 5 s T ~ ( / d.x.` *.) ^ U w 1 c.",
"o < u.u.u.i.i.i.j.j.j.j.j.j.i.l 5 7 z V S C f.x.] F D A q 7 2 c.",
"o < u.u.i.i.j.j.j.k.k.k.k.j.i.k 5 3 y.x.x.x.x.x.x.x.x.x.B r 2 c.",
"o < u.i.i.j.j.k.k.k.k.k.k.k.j.l w 5 5.p.p.a.z.x.h.a.a.p.x w 5 c.",
"o < u.i.i.j.k.k.k.l.l.l.l.l.j.n 7 r 0 f M m d.x.G Q N h i w 5 c.",
"X ; u.i.i.j.j.k.k.k.l.l.l.k.j.<.w w e L R N s.x.J ! W P e w 3 c.",
"  X + & & & & & & & * * * * * & 4 7 7 y g j s.x.H E I u 7 w c.c.",
"c.                              . r 7 7 0 d 9.s.Z g 0 7 r 3 c.c.",
"c.c.c.c.c.c.c.c.c.c.c.c.c.c.c.c.c.# r 7 7 7 6 6 8 5 7 r 5 c.c.c.",
"c.c.c.c.c.c.c.c.c.c.c.c.c.c.c.c.c.c.c.7 r r w 7 r K r 1 c.c.c.c.",
"c.c.c.c.c.c.c.c.c.c.c.c.c.c.c.c.c.c.c.c.@ 3 5 7 5 $ c.c.c.c.c.c.",
"c.c.c.c.c.c.c.c.c.c.c.c.c.c.c.c.c.c.c.c.c.c.c.c.c.c.c.c.c.c.c.c."
};
