/* XPM */
static char *install_gui[] = {
/* columns rows colors chars-per-pixel */
"32 32 183 2",
"   c #2C2E2A",
".  c #3C2C2D",
"X  c #2E302C",
"o  c #30322E",
"O  c #343631",
"+  c #373936",
"@  c #383936",
"#  c #3D3E3B",
"$  c #770E12",
"%  c #791317",
"&  c #473331",
"*  c #4F3F3C",
"=  c #3E403C",
"-  c #434543",
";  c #474945",
":  c #4C4E4B",
">  c #4F514E",
",  c #545551",
"<  c #565854",
"1  c #585B57",
"2  c #595C58",
"3  c #61625E",
"4  c #636561",
"5  c #676964",
"6  c #696B67",
"7  c #6C6D69",
"8  c #6F716D",
"9  c #71736F",
"0  c #6E6C70",
"q  c #747673",
"w  c #767874",
"e  c #787976",
"r  c #7D7F7B",
"t  c #AA1318",
"y  c #AE1A1E",
"u  c #AF1C20",
"i  c #B01E22",
"p  c #883537",
"a  c #AF2023",
"s  c #B12125",
"d  c #B3262A",
"f  c #B3282C",
"g  c #B42E32",
"h  c #B43134",
"j  c #B33C3F",
"k  c #B64344",
"l  c #A05958",
"z  c #B75959",
"x  c #8B6A66",
"c  c #847A76",
"v  c #C34B4E",
"b  c #C35C5D",
"n  c #C17373",
"m  c #C27A78",
"M  c #7F827D",
"N  c #80827D",
"B  c #907D9F",
"V  c #848682",
"C  c #868985",
"Z  c #898B87",
"A  c #8C8D8B",
"S  c #8E908D",
"D  c #91938E",
"F  c #8C8393",
"G  c #959693",
"H  c #969993",
"J  c #999B96",
"K  c #97959A",
"L  c #99949A",
"P  c #9C9E9B",
"I  c #AE8482",
"U  c #B98188",
"Y  c #AF9390",
"T  c #B19996",
"R  c #9FA19C",
"E  c #A1A39F",
"W  c #9F87A0",
"Q  c #A39EA9",
"!  c #B39CAB",
"~  c #B29CB1",
"^  c #9EA0A0",
"/  c #A3A5A2",
"(  c #A9ABA6",
")  c #AAACAA",
"_  c #BAAEAA",
"`  c #AFB1AC",
"'  c #B1B4AE",
"]  c #B9ABB5",
"[  c #B4AEBA",
"{  c #B8ADBD",
"}  c #B2B4B2",
"|  c #B6BAB4",
" . c #BABCB6",
".. c #B6B1BB",
"X. c #BBBCBA",
"o. c #C58280",
"O. c #C5938F",
"+. c #C89191",
"@. c #CDAFAB",
"#. c #C0BABE",
"$. c #C1C3BE",
"%. c #CBC5B9",
"&. c #D5C3BD",
"*. c #D6CCBE",
"=. c #BFB4C6",
"-. c #B4B9C4",
";. c #BCBDC4",
":. c #C1BFC5",
">. c #C5BCCC",
",. c #D2B2C5",
"<. c #D8BDC7",
"1. c #D4B6CB",
"2. c #D2B8CB",
"3. c #DBBBCE",
"4. c #C1BDD1",
"5. c #BFC2C2",
"6. c #C4C7C1",
"7. c #CFC7C1",
"8. c #C7C8C5",
"9. c #CCC8C6",
"0. c #C7C6CA",
"q. c #CCCDCB",
"w. c #D2CEC3",
"e. c #DDCCC6",
"r. c #D7C2CA",
"t. c #D6CDCB",
"y. c #DDCDCC",
"u. c #DED6C5",
"i. c #DED9C7",
"p. c #D3D6CE",
"a. c #DFDBCA",
"s. c #C2C5D4",
"d. c #CFC3D7",
"f. c #C8CDD0",
"g. c #C4CAD9",
"h. c #D1C3D6",
"j. c #DAC7D7",
"k. c #D6CDDC",
"l. c #CAD3D8",
"z. c #D3D4D2",
"x. c #D5D9D2",
"c. c #D9DBD7",
"v. c #D3D6DD",
"b. c #DAD5DE",
"n. c #DDDEDC",
"m. c #E0C5CF",
"M. c #E4D3CD",
"N. c #E2D9C9",
"B. c #E3C4D6",
"V. c #E3CAD1",
"C. c #E2C9D9",
"Z. c #E7D7D0",
"A. c #EEDED6",
"S. c #E3D4DB",
"D. c #EBD2DB",
"F. c #DDE1DD",
"G. c #E9E1CE",
"H. c #E3E3D0",
"J. c #E1E3DF",
"K. c #D6D4E1",
"L. c #DDD5E3",
"P. c #D7DEE6",
"I. c #DFDBE3",
"U. c #DADAE8",
"Y. c #E3D0E1",
"T. c #E2DDE4",
"R. c #E4DEE9",
"E. c #E4E6E2",
"W. c #E7E8E5",
"Q. c #E9EAE6",
"!. c #E7E1EA",
"~. c #E9E4ED",
"^. c #ECEDEA",
"/. c #EFF0EE",
"(. c #F0F1EF",
"). c #EDEBF1",
"_. c #F0EEF3",
"`. c #F3F4F3",
"'. c #F7F8F6",
"]. c #F8F8F7",
"[. c #F7F5F9",
"{. c #FBFBFC",
"}. c None",
/* pixels */
"}.}.}.}.}.}.}.}.}.}.}.}.}.}.}.}.}.}.}.}.}.}.}.}.}.}.}.}.}.}.}.}.",
"}.}.}.}.}.}.}.}.}.}.}.}.}.}.}.}.`.^.`././.'.^.` ) }.}.}.}.}.}.}.",
"}.}.}.}.}.}.}.}.~.n.q.z.`.q.^.{.{.{.^.) R `.^.6. .}.}.}.}.}.}.}.",
"}.}.}.}.}.Q.{.{.z.} z.A <   , E.'.].^.f.} `.Q.6. .}.}.}.}.}.}.}.",
"}.}.}.}.}.}.X.S @   , A x.| Q.'.`.`.^.) ) `.Q.$. .}.}.}.}.}.}.}.",
"}.}.}.}.}.}.X.6   z.{.].].'.'.'.`.`.^./ / /.Q.6. .}.}.}.}.}.}.}.",
"}.}.}.}.}.}.e # r ^.X.G C / q.`.`.(.(.(././.E.6. .}.}.}.}.}.}.}.",
"}.}.}.}.}.}.4 4 P ; 9 P ( Z < q J.(.(.(./.^.E.6. .}.}.}.}.}.}.}.",
"}.}.}.}.}.}.e   e Q.'.'.`.`./.H : E./.Q./.Q.Q.6. .}.}.}.}.}.}.}.",
"}.}.}.}.}.}.: A '.`.`.`.`./././.J w ^./.Q.Q.E.6. .}.}.}.}.}.}.}.",
"}.}.}.}.}.}.: `.`.`.`./././././.Q.: x.Q.Q.Q.J.6. .}.}.}.}.}.}.}.",
"}.}.}.}.}.}.A E.E./.`.J.E F./.Q.p.S ( Q.E.Q.Q.6. .}.}.}.}.}.}.}.",
"}.}.}.}.}.}.6   X 8 q./.J.e 6./.| ( V q.Q.J.J.6. .}.}.}.}.}.}.}.",
"}.}.}.}.}.}.@   , , X q 8.Q.q.Q.F.E < ` x.E.J.6. .}.}.}.}.}.}.}.",
"}.}.}.}.}.}.#   H /.z.R 6 3 Z S G X 2 5 9 J.F.6.}.}.}.}.}.}.}.}.",
"}.}.}.}.}.}.;   # Z G J R J S C 6 X G R Z E.F.6.}.}.}.}.}.}.}.}.",
"}.}.}.}.}.}.r 6     8 G G `  .D -     8 R F.F.6.}.}.}.}.}.}.}.}.",
"}.}.}.}.}.}.K 0 - X V $.S 2     ,   X 6 O / c.$.}.}.}.}.}.}.}.}.",
"}.}.}.}.;.g.U.R.!.I.K X       @ 3 X   M 8 S F.6.}.}.}.}.}.}.}.}.",
"}.}.:.w.p.l.P.~.).[.{.f.& 7 3 ' M | R M R x.c.6.3 }.}.}.}.}.}.}.",
"}.}.y.N.a.x.P.).`.{.{.{.@.x I c E $.F.w a.p.c.T * }.}.}.}.}.}.}.",
"}.2.V.Z.G.H.F.).{.{.{.[.(.B f f h z o.Y w.q.O.% & }.}.}.}.}.}.}.",
"}.B.B.D.A.i. .5.c.[.[.).~.] d d f s a i a b t $ . }.}.}.}.}.}.}.",
"{ Y.Y.D.D.9._.n.W.I.).R.L.>.l g s a a i y v t p }.}.}.}.}.}.}.}.",
">.R.~.~.S.`.}.}.^.:.T.L.k.h.q | @.m k y y v j  .}.}.}.}.}.}.}.}.",
"{ !.).[.[.W.`.}.].<.B.j.2.=.x.x.x.p.p.w.O.n t.$.}.}.}.}.}.}.}.}.",
"[ ).[.{.{.I.T.Q.w.M.y.3.2.~ }.H ' p.p.p.p.$.c.M }.}.}.}.}.}.}.}.",
"}._.{.{.{.`.!.v.p.u.e.<.1.W }.}.}.}.D ) p.$.E }.}.}.}.}.}.}.}.}.",
"}.:.{.{.[.^.R.K.f.w.*.&.! }.}.}.}.}.}.}.}.R }.}.}.}.}.}.}.}.}.}.",
"}.}.0.[.).!.L.k.s.6.%._ B }.}.}.}.}.}.}.}.}.}.}.}.}.}.}.}.}.}.}.",
"}.}.}.Q L.L.k.h.4.-.L }.}.}.}.}.}.}.}.}.}.}.}.}.}.}.}.}.}.}.}.}.",
"}.}.}.}.}.}.F F }.}.}.}.}.}.}.}.}.}.}.}.}.}.}.}.}.}.}.}.}.}.}.}."
};
