/* XPM */
static char *install_gui[] = {
/* columns rows colors chars-per-pixel */
"32 32 185 2",
"   c #2C2E2A",
".  c #3C2C2D",
"X  c #2E302C",
"o  c #30322E",
"O  c #343631",
"+  c #373936",
"@  c #383936",
"#  c #3D3E3B",
"$  c #770E12",
"%  c #791317",
"&  c #473331",
"*  c #4F3F3C",
"=  c #3E403C",
"-  c #434543",
";  c #474945",
":  c #4C4E4B",
">  c #4F514E",
",  c #545551",
"<  c #565854",
"1  c #585B57",
"2  c #595C58",
"3  c #61625E",
"4  c #636561",
"5  c #676964",
"6  c #696B67",
"7  c #6C6D69",
"8  c #6F716D",
"9  c #71736F",
"0  c #6E6C70",
"q  c #747673",
"w  c #767874",
"e  c #787976",
"r  c #7D7F7B",
"t  c #AA1318",
"y  c #883537",
"u  c #B22629",
"i  c #B4292D",
"p  c #B43134",
"a  c #B33C3F",
"s  c #B9393D",
"d  c #BC3F43",
"f  c #B64344",
"g  c #BD4346",
"h  c #BE464A",
"j  c #A05958",
"k  c #B75959",
"l  c #8B6A66",
"z  c #847A76",
"x  c #C35558",
"c  c #C35C5D",
"v  c #C66164",
"b  c #CC6B6E",
"n  c #C17373",
"m  c #CE7375",
"M  c #C27A78",
"N  c #D47D7F",
"B  c #7F827D",
"V  c #80827D",
"C  c #907D9F",
"Z  c #848682",
"A  c #868985",
"S  c #898B87",
"D  c #8C8D8B",
"F  c #8E908D",
"G  c #91938E",
"H  c #8C8393",
"J  c #959693",
"K  c #969993",
"L  c #999B96",
"P  c #97959A",
"I  c #99949A",
"U  c #9C9E9B",
"Y  c #AE8482",
"T  c #B98188",
"R  c #AF9390",
"E  c #B19996",
"W  c #9FA19C",
"Q  c #A1A39F",
"!  c #9F87A0",
"~  c #A39EA9",
"^  c #B39CAB",
"/  c #B29CB1",
"(  c #9EA0A0",
")  c #A3A5A2",
"_  c #A9ABA6",
"`  c #AAACAA",
"'  c #BAAEAA",
"]  c #AFB1AC",
"[  c #B1B4AE",
"{  c #B4AEBA",
"}  c #BAAEBB",
"|  c #B2B4B2",
" . c #B6BAB4",
".. c #BABCB6",
"X. c #B6B1BB",
"o. c #BBBCBA",
"O. c #C58280",
"+. c #D48486",
"@. c #C5938F",
"#. c #C89191",
"$. c #CDAFAB",
"%. c #C0BABE",
"&. c #C1C3BE",
"*. c #CBC5B9",
"=. c #D5C3BD",
"-. c #D6CCBE",
";. c #BFB4C6",
":. c #B4B9C4",
">. c #BCBDC4",
",. c #C1BFC5",
"<. c #C5BCCC",
"1. c #D2B2C5",
"2. c #D8BDC7",
"3. c #D4B6CB",
"4. c #D2B8CB",
"5. c #DBBBCE",
"6. c #C1BDD1",
"7. c #BFC2C2",
"8. c #C4C7C1",
"9. c #CFC7C1",
"0. c #C7C8C5",
"q. c #CCC8C6",
"w. c #C7C6CA",
"e. c #CCCDCB",
"r. c #D2CEC3",
"t. c #DDCCC6",
"y. c #D7C2CA",
"u. c #D6CDCB",
"i. c #DDCDCC",
"p. c #DED6C5",
"a. c #DED9C7",
"s. c #D3D6CE",
"d. c #DFDBCA",
"f. c #C2C5D4",
"g. c #CFC3D7",
"h. c #C8CDD0",
"j. c #C4CAD9",
"k. c #D1C3D6",
"l. c #DAC7D7",
"z. c #D6CDDC",
"x. c #CAD3D8",
"c. c #D3D4D2",
"v. c #D5D9D2",
"b. c #D9DBD7",
"n. c #D3D6DD",
"m. c #DAD5DE",
"M. c #DDDEDC",
"N. c #E0C5CF",
"B. c #E4D3CD",
"V. c #E2D9C9",
"C. c #E3C4D6",
"Z. c #E3CAD1",
"A. c #E2C9D9",
"S. c #E7D7D0",
"D. c #EEDED6",
"F. c #E3D4DB",
"G. c #EBD2DB",
"H. c #DDE1DD",
"J. c #E9E1CE",
"K. c #E3E3D0",
"L. c #E1E3DF",
"P. c #D6D4E1",
"I. c #DDD5E3",
"U. c #D7DEE6",
"Y. c #DFDBE3",
"T. c #DADAE8",
"R. c #E3D0E1",
"E. c #E2DDE4",
"W. c #E4DEE9",
"Q. c #E4E6E2",
"!. c #E7E8E5",
"~. c #E9EAE6",
"^. c #E7E1EA",
"/. c #E9E4ED",
"(. c #ECEDEA",
"). c #EFF0EE",
"_. c #F0F1EF",
"`. c #EDEBF1",
"'. c #F0EEF3",
"]. c #F3F4F3",
"[. c #F7F8F6",
"{. c #F8F8F7",
"}. c #F7F5F9",
"|. c #FBFBFC",
" X c None",
/* pixels */
" X X X X X X X X X X X X X X X X X X X X X X X X X X X X X X X X",
" X X X X X X X X X X X X X X X X].(.].).).[.(.] `  X X X X X X X",
" X X X X X X X X/.M.e.c.].e.(.|.|.|.(.` W ].(.8... X X X X X X X",
" X X X X X~.|.|.c.| c.D <   , Q.[.{.(.h.| ].~.8... X X X X X X X",
" X X X X X Xo.F @   , D v. .~.[.].].(.` ` ].~.&... X X X X X X X",
" X X X X X Xo.6   c.|.{.{.[.[.[.].].(.) ) ).~.8... X X X X X X X",
" X X X X X Xe # r (.o.J A ) e.].]._._._.).).Q.8... X X X X X X X",
" X X X X X X4 4 U ; 9 U _ S < q L._._._.).(.Q.8... X X X X X X X",
" X X X X X Xe   e ~.[.[.].].).K : Q.).~.).~.~.8... X X X X X X X",
" X X X X X X: D [.].].].].).).).L w (.).~.~.Q.8... X X X X X X X",
" X X X X X X: ].].].].).).).).).~.: v.~.~.~.L.8... X X X X X X X",
" X X X X X XD Q.Q.).].L.Q H.).~.s.F _ ~.Q.~.~.8... X X X X X X X",
" X X X X X X6   X 8 e.).L.e 8.). ._ Z e.~.L.L.8... X X X X X X X",
" X X X X X X@   , , X q 0.~.e.~.H.Q < ] v.Q.L.8... X X X X X X X",
" X X X X X X#   K ).c.W 6 3 S F J X 2 5 9 L.H.8. X X X X X X X X",
" X X X X X X;   # S J L W L F A 6 X J W S Q.H.8. X X X X X X X X",
" X X X X X Xr 6     8 J J ] ..G -     8 Q H.H.&. X X X X X X X X",
" X X X X X XI 0 - X Z &.F 1 X   ,   X 6 O Q H.&. X X X X X X X X",
" X X X X>.j.T.W./.Y.P X       + 3 X   B 9 F H.8. X X X X X X X X",
" X X<.r.s.x.U./.`.}.|.w.# 6 3 [ B  .W B Q v.b.&.3  X X X X X X X",
" X Xi.V.V.b.U.`.].|.|.|.X.l Y z Q &.v.w v.s.b.E *  X X X X X X X",
" X4.Z.S.J.K.U.(.|.|.|.}.'.T g u s k O.R s.r.@.% &  X X X X X X X",
" XC.C.G.J.V...7.m.{.'.'./.} +.m b d u u u c t $ .  X X X X X X X",
"} R.R.G.G.q._.M.!.Y.`.W.I.<.j v h x m b x N t y  X X X X X X X X",
";.W././.F.]. X X(.o.W.I.z.4.e  .$.M f i s b a .. X X X X X X X X",
":./.`.}.}.^.]. X[.y.A.l.g.;.v.v.v.s.s.-.#.n u.&. X X X X X X X X",
"{ '.}.|.|.M.E.~.-.B.C.5.3./  XK ] s.s.s.v.&.b.B  X X X X X X X X",
" X'.{.|.|.'./.n.s.p.t.2.3.!  X X X XF ` s.&.Q  X X X X X X X X X",
" X,.|.{.}./.W.P.h.r.-.=.`  X X X X X X X XW  X X X X X X X X X X",
" X Xw.}.`./.I.z.f.8.*.' C  X X X X X X X X X X X X X X X X X X X",
" X X X~ m.Y.z.k.6.>.I  X X X X X X X X X X X X X X X X X X X X X",
" X X X X X XH H  X X X X X X X X X X X X X X X X X X X X X X X X"
};
