/* XPM */
static char *install_gui[] = {
/* columns rows colors chars-per-pixel */
"32 32 187 2 ",
"   c #2C2E2A",
".  c #3D2C2D",
"X  c #2E302C",
"o  c #30322E",
"O  c #343631",
"+  c #373935",
"@  c #383936",
"#  c #3D3F3C",
"$  c #770E12",
"%  c #791317",
"&  c #473331",
"*  c #4F3F3C",
"=  c #3E403C",
"-  c #434543",
";  c #474945",
":  c #4C4E4B",
">  c #4F514E",
",  c #545551",
"<  c #565854",
"1  c #585B57",
"2  c #595C58",
"3  c #5F615D",
"4  c #61625E",
"5  c #636561",
"6  c #676964",
"7  c #696B67",
"8  c #6C6D6A",
"9  c #6F716D",
"0  c #71736F",
"q  c #747673",
"w  c #767874",
"e  c #787976",
"r  c #7D7F7C",
"t  c #AA1318",
"y  c #883537",
"u  c #B22629",
"i  c #B4292D",
"p  c #B43134",
"a  c #B33C3F",
"s  c #B9393D",
"d  c #BC3F43",
"f  c #B64344",
"g  c #BD4346",
"h  c #BE464A",
"j  c #A05958",
"k  c #B75959",
"l  c #8B6A66",
"z  c #847A76",
"x  c #C35558",
"c  c #C35C5D",
"v  c #C66164",
"b  c #CC6B6E",
"n  c #C17373",
"m  c #CE7375",
"M  c #C27A78",
"N  c #D47D7F",
"B  c #7F827D",
"V  c #80827D",
"C  c #917E9E",
"Z  c #848682",
"A  c #868985",
"S  c #898B87",
"D  c #8C8D8B",
"F  c #8E908D",
"G  c #90928E",
"H  c #8D8393",
"J  c #959693",
"K  c #969993",
"L  c #999B96",
"P  c #97969A",
"I  c #99949A",
"U  c #9C9E9A",
"Y  c #AE8482",
"T  c #B98288",
"R  c #AF9390",
"E  c #B19996",
"W  c #9FA19C",
"Q  c #A1A49E",
"!  c #9F87A0",
"~  c #A49DA8",
"^  c #B39DAB",
"/  c #B29BB1",
"(  c #9EA0A0",
")  c #A3A5A2",
"_  c #A8ABA6",
"`  c #AAACAA",
"'  c #B9AEAA",
"]  c #AFB1AC",
"[  c #B1B3AE",
"{  c #B5ADBC",
"}  c #BBADB8",
"|  c #B3B3B3",
" . c #B6BAB4",
".. c #BABCB6",
"X. c #B7B0BD",
"o. c #BBBCBA",
"O. c #C58280",
"+. c #D48486",
"@. c #C5938F",
"#. c #C89191",
"$. c #CDAFAB",
"%. c #C1A9BF",
"&. c #C0BABE",
"*. c #C1C3BE",
"=. c #CCC5B8",
"-. c #D5C3BD",
";. c #D6CCBE",
":. c #BEB2C7",
">. c #B3B9C5",
",. c #BEBDC5",
"<. c #C0B2C3",
"1. c #C2BFC4",
"2. c #C3BACA",
"3. c #D3B2C5",
"4. c #D8BDC6",
"5. c #D4B6CC",
"6. c #D3B8CB",
"7. c #DABBCE",
"8. c #C1BCD1",
"9. c #C4C6C1",
"0. c #CFC7C1",
"q. c #C7C8C5",
"w. c #CECBC4",
"e. c #C6C4CB",
"r. c #C8C7C9",
"t. c #CCCDCB",
"y. c #D4CFC3",
"u. c #DECCC6",
"i. c #D7C3CA",
"p. c #D6CDCB",
"a. c #DDCDCB",
"s. c #DED6C5",
"d. c #DDD8C7",
"f. c #D3D6CE",
"g. c #C1C5D4",
"h. c #CFC3D7",
"j. c #C8CED1",
"k. c #C4CBD9",
"l. c #D1C2D5",
"z. c #DAC8D7",
"x. c #D6CDDC",
"c. c #CBD3D8",
"v. c #D3D4D2",
"b. c #D5D9D2",
"n. c #D9DBD7",
"m. c #D3D7DD",
"M. c #DAD4DE",
"N. c #DDDEDC",
"B. c #E0C5CF",
"V. c #E4D3CD",
"C. c #E1DAC9",
"Z. c #E1C2D5",
"A. c #E3C9D0",
"S. c #E5C6D8",
"D. c #E3C9D9",
"F. c #E8D7D0",
"G. c #EFDED6",
"H. c #E4D2DD",
"J. c #EBD2DB",
"K. c #DDE1DD",
"L. c #E9E1CE",
"P. c #E4E3D0",
"I. c #E1E3DF",
"U. c #D7D4E0",
"Y. c #DDD5E3",
"T. c #D7DEE6",
"R. c #DFDCE1",
"E. c #DBDAE8",
"W. c #E0D0E1",
"Q. c #E2DBE5",
"!. c #E4DDE9",
"~. c #E4E5E3",
"^. c #E7E8E5",
"/. c #E9EAE6",
"(. c #E7E1EA",
"). c #EAE4ED",
"_. c #ECEDEA",
"`. c #EFF0EE",
"'. c #F0F1EF",
"]. c #EEEBF1",
"[. c #F0EDF3",
"{. c #F3F4F3",
"}. c #F7F8F6",
"|. c #F8F8F7",
" X c #F7F5F9",
".X c #FBFBFC",
"XX c None",
/* pixels */
"XXXXXXXXXXXXXXXXXXXXXXXXXXXXXXXXXXXXXXXXXXXXXXXXXXXXXXXXXXXXXXXX",
"XXXXXXXXXXXXXXXXXXXXXXXXXXXXXXXX'.[.`.`.`.}._.] _ XXXXXXXXXXXXXX",
"XXXXXXXXXXXXXXXX/.R.r.v.'.r.'..X|..X`.` ( {./.9...XXXXXXXXXXXXXX",
"XXXXXXXXXX/..X.Xv.] v.D 1   , ~.|.|._.t.| {./.9...XXXXXXXXXXXXXX",
"XXXXXXXXXXXXo.G @   > G n.[ ^.}. X{./.] ` '.^.9...XXXXXXXXXXXXXX",
"XXXXXXXXXXXXo.7   v..X.X|.}.}.}.}.{._.) ) `.^.9...XXXXXXXXXXXXXX",
"XXXXXXXXXXXXw # r _.o.G S ) t.}.{.{.'.`.`.`.^.9...XXXXXXXXXXXXXX",
"XXXXXXXXXXXX5 5 W ; 0 W _ S < 0 K.'.`.`.`._.^.9...XXXXXXXXXXXXXX",
"XXXXXXXXXXXXw   w /. X{.{.{.`.K ; I.`.`._._./.9...XXXXXXXXXXXXXX",
"XXXXXXXXXXXX: F  X X{.{.{.{.`.`.K B /./././.^.9...XXXXXXXXXXXXXX",
"XXXXXXXXXXXX: '.{.{.{.{.'.`.`.`./.> b./././.~.*...XXXXXXXXXXXXXX",
"XXXXXXXXXXXXF ~.I.'.{.K.) K._._.f.F _ /./.^./.*...XXXXXXXXXXXXXX",
"XXXXXXXXXXXX7   o 9 t.`.I.e *._. ._ V f.^.~.I.q...XXXXXXXXXXXXXX",
"XXXXXXXXXXXX@   , , X q q./.t./.K.Q < ` b.~.I.*...XXXXXXXXXXXXXX",
"XXXXXXXXXXXX#   K _.f.W 7 3 S G G o 2 6 9 I.K.9.XXXXXXXXXXXXXXXX",
"XXXXXXXXXXXX;   = S K U W L G A 7 o K U D I.K.q.XXXXXXXXXXXXXXXX",
"XXXXXXXXXXXXr 7     0 J J ] ..G ;     9 Q I.n.9.XXXXXXXXXXXXXXXX",
"XXXXXXXXXXXXP 8 -   A *.F 2 X   ,   o 6 O Q N.*.XXXXXXXXXXXXXXXX",
"XXXXXXXX,.k.E.!.(.Q.I         @ 5 o   B 0 G N.9.XXXXXXXXXXXXXXXX",
"XXXX<.p.f.c.T.).]. X.Xr.= 7 4 | B  .W B Q f.n.*.4 XXXXXXXXXXXXXX",
"XXXXa.C.C.b.T.].{..X.X.X| l Y z ) *.n.w b.f.n.E * XXXXXXXXXXXXXX",
"XX6.A.F.L.P.K.]..X.X.X X[.T g u p k O.R f.y.@.% & XXXXXXXXXXXXXX",
"%.Z.S.J.G.d...9.v. X X].).} +.m b f u u u c t $ . XXXXXXXXXXXXXX",
"{ W.H.J.J.w.`.Q.^.R.].!.Y.2.j v h x m b x N t y XXXXXXXXXXXXXXXX",
"2.!.).).H.{.XXXX_.&.!.Y.x.l.q  .$.M f i s b a ..XXXXXXXXXXXXXXXX",
"{ ).]. X{.(.{.XX}.i.D.z.l.:.b.b.b.f.f.0.@.n p.9.XXXXXXXXXXXXXXXX",
"{ [. X.X.XN.Q./.y.V.B.7.5./ XXK [ f.f.b.f.*.n.r XXXXXXXXXXXXXXXX",
"XX[..X.X.X{.).m.f.s.u.4.3.! XXXXXXXXG _ f.*.) XXXXXXXXXXXXXXXXXX",
"XX1..X.X X[.!.U.j.y.;.-.^ XXXXXXXXXXXXXXXXU XXXXXXXXXXXXXXXXXXXX",
"XXXXe.{.].!.Y.x.g.e.=.' H XXXXXXXXXXXXXXXXXXXXXXXXXXXXXXXXXXXXXX",
"XXXXXX~ M.Q.x.l.8.>.I XXXXXXXXXXXXXXXXXXXXXXXXXXXXXXXXXXXXXXXXXX",
"XXXXXXXXXXXXH H XXXXXXXXXXXXXXXXXXXXXXXXXXXXXXXXXXXXXXXXXXXXXXXX"
};
