/* XPM */
static char *install-gui-16[] = {
/* columns rows colors chars-per-pixel */
"16 16 156 2",
"   c black",
".  c gray2",
"X  c #060606",
"o  c gray5",
"O  c #0E0E0E",
"+  c #101010",
"@  c gray8",
"#  c #161616",
"$  c gray11",
"%  c #1E1E1E",
"&  c gray15",
"*  c #272727",
"=  c gray16",
"-  c #292D29",
";  c #313131",
":  c #323232",
">  c gray20",
",  c #343434",
"<  c #373737",
"1  c #393939",
"2  c #3A3A3A",
"3  c gray24",
"4  c #3E3E3E",
"5  c #004000",
"6  c #005600",
"7  c #005800",
"8  c #006800",
"9  c #006B00",
"0  c #007C00",
"q  c #2F522F",
"w  c gray25",
"e  c #414141",
"r  c #434343",
"t  c #444444",
"y  c gray27",
"u  c #464646",
"i  c #484848",
"p  c #4C4C4C",
"a  c gray30",
"s  c gray31",
"d  c #505050",
"f  c gray34",
"g  c #5A5A5A",
"h  c #646464",
"j  c #656565",
"k  c #676767",
"l  c #6A6A6A",
"z  c gray42",
"x  c #727272",
"c  c gray45",
"v  c gray46",
"b  c gray47",
"n  c #008A00",
"m  c #008D00",
"M  c #008F00",
"N  c #009400",
"B  c #059605",
"V  c #009D00",
"C  c #0A9D0A",
"Z  c #03A300",
"A  c #00A900",
"S  c #00AB00",
"D  c #02AA00",
"F  c #00AC00",
"G  c #00AD00",
"H  c #02AF02",
"J  c #0AA60A",
"K  c #00B100",
"L  c #07B600",
"P  c #0DB909",
"I  c #1DA115",
"U  c #12B300",
"Y  c #16B300",
"T  c #2DB400",
"R  c #27AB27",
"E  c #30AE2D",
"W  c #3DA23D",
"Q  c #33B333",
"!  c #49BB00",
"~  c #53B236",
"^  c #5ABB32",
"/  c #419E41",
"(  c #51A551",
")  c #649A64",
"_  c #7A9E7A",
"`  c #71B546",
"'  c #65AD65",
"]  c #5EC900",
"[  c #5BC315",
"{  c #55D155",
"}  c #64D05F",
"|  c #67D761",
" . c #79CF68",
".. c #77D777",
"X. c #84C418",
"o. c #808080",
"O. c gray51",
"+. c #848484",
"@. c gray54",
"#. c #909090",
"$. c #939393",
"%. c #9F9F9F",
"&. c #96BE96",
"*. c #A0A0A0",
"=. c #A2A2A2",
"-. c gray64",
";. c #ACACAC",
":. c gray68",
">. c #AFAFAF",
",. c #AFB8AF",
"<. c gray69",
"1. c gray70",
"2. c #B4B4B4",
"3. c gray71",
"4. c #B6B6B6",
"5. c #B7B7B7",
"6. c #B9B9B9",
"7. c gray73",
"8. c #BBBBBB",
"9. c gray74",
"0. c gray",
"q. c #81DC81",
"w. c #A8E3A8",
"e. c #C0C0C0",
"r. c gray76",
"t. c gray77",
"y. c #C5C5C5",
"u. c gray78",
"i. c #C8C8C8",
"p. c #CBCBCB",
"a. c gray80",
"s. c #CDCDCD",
"d. c #CECECE",
"f. c gray81",
"g. c #D0D0D0",
"h. c #D2D2D2",
"j. c LightGray",
"k. c gray83",
"l. c #D8D8D8",
"z. c #DDDDDD",
"x. c #CDE3CB",
"c. c #D9EECB",
"v. c #E1E1E1",
"b. c gray89",
"n. c #E7E7E7",
"m. c gray92",
"M. c #ECECEC",
"N. c #E6F1E0",
"B. c #E6F2E0",
"V. c #EEF5E3",
"C. c #F1F8E8",
"Z. c #F1F9EF",
"A. c #F2F8ED",
"S. c #FEFFFD",
"D. c gray100",
"F. c None",
/* pixels */
"F.F.r d @.;.8.8.>.=.@.v r < F.F.",
"F.: k p.f.f.f.9.8.4.4.u.k : F.F.",
"@ < r.f.f.f.8.4.4.4.9.u.z : F.F.",
". y u.p.p.;.p r r p +.=.h : F.F.",
"  p r.u.4.%.f 2 = # o : 2 : F.F.",
"  4 8.8.4.4.4.9.4.=.o.r : F.F.F.",
"  * o.4.4.4.8.9.9.r.r.4.g : F.F.",
"    2 z ;.8.9.9.8.,.( W / q F.F.",
"F.* o . % : i x _ R ..w.q.Q N F.",
"y y @.g 4 : : - B { } Z. .| J V ",
". 4 f.k.r.>.=.) H E ~ C.` ^ P n ",
"  4 f.z.v.n.n.' H x.N.D.V.N.I m ",
"  2 4.l.n.m.m.&.K U ! C.X.] L m ",
"  o % = y k v v C D T c.[ Y H 6 ",
"F.F.F.F.F.F.: : 5 D D Z D K 8 F.",
"F.F.F.F.F.F.F.F.F.  6 0 9   F.F."
};
