/* XPM */
static char *install-gui-16[] = {
/* columns rows colors chars-per-pixel */
"16 16 160 2",
"   c black",
".  c #000700",
"X  c gray5",
"o  c gray7",
"O  c #161616",
"+  c gray9",
"@  c #003C00",
"#  c gray13",
"$  c #222222",
"%  c gray15",
"&  c #272727",
"*  c #2C2C2C",
"=  c #2D2D2D",
"-  c #2F2F2F",
";  c gray19",
":  c #313131",
">  c #323232",
",  c gray20",
"<  c #343434",
"1  c #353535",
"2  c gray21",
"3  c #373737",
"4  c gray22",
"5  c #3C3C3C",
"6  c #3F3F3F",
"7  c #005C00",
"8  c #005D00",
"9  c #006900",
"0  c #007100",
"q  c #007E00",
"w  c #127F12",
"e  c gray25",
"r  c #414141",
"t  c #444444",
"y  c gray27",
"u  c gray29",
"i  c #4B4B4B",
"p  c #4C4C4C",
"a  c #4E4E4E",
"s  c gray31",
"d  c #515151",
"f  c gray32",
"g  c #535353",
"h  c #5D5D5D",
"j  c #686868",
"k  c #6A6A6A",
"l  c gray42",
"z  c gray43",
"x  c #7E7E7E",
"c  c #008B00",
"v  c #008E00",
"b  c #009000",
"n  c #009200",
"m  c #009500",
"M  c #059705",
"N  c #009A00",
"B  c #0F990F",
"V  c #00A700",
"C  c #03A400",
"Z  c #00AB00",
"A  c #03A900",
"S  c #00AC00",
"D  c #00AD00",
"F  c #00AE00",
"G  c #02AE02",
"H  c #0AA80A",
"J  c #00B000",
"K  c #00B300",
"L  c #08B500",
"P  c #0EB80A",
"I  c #11B400",
"U  c #17B400",
"Y  c #24A11C",
"T  c #2CB700",
"R  c #26A926",
"E  c #2FAD2D",
"W  c #33B533",
"Q  c #4BBE00",
"!  c #54B337",
"~  c #5BBC33",
"^  c #52A352",
"/  c #75B64C",
"(  c #6FB16F",
")  c #5ECA00",
"_  c #62C31C",
"`  c #53D053",
"'  c #65D261",
"]  c #67D961",
"[  c #7DCE6B",
"{  c #74D674",
"}  c #86C420",
"|  c #898989",
" . c gray61",
".. c gray62",
"X. c #8BBA8B",
"o. c #97B897",
"O. c gray63",
"+. c #A2A2A2",
"@. c gray64",
"#. c gray66",
"$. c #A9A9A9",
"%. c gray67",
"&. c gray68",
"*. c #AFAFAF",
"=. c #ACB4AC",
"-. c gray69",
";. c #B1B1B1",
":. c #B2B2B2",
">. c gray70",
",. c #B4B4B4",
"<. c gray71",
"1. c #B6B6B6",
"2. c #B7B7B7",
"3. c gray72",
"4. c #B9B9B9",
"5. c gray73",
"6. c #BBBBBB",
"7. c gray74",
"8. c gray",
"9. c #82DD82",
"0. c #9EC49E",
"q. c #A7E3A7",
"w. c #C0C0C0",
"e. c #C3C3C3",
"r. c #C5C5C5",
"t. c gray78",
"y. c #C8C8C8",
"u. c gray79",
"i. c #CACACA",
"p. c #CBCBCB",
"a. c gray80",
"s. c #CDCDCD",
"d. c gray81",
"f. c #C6DFC4",
"g. c #D0D0D0",
"h. c gray82",
"j. c LightGray",
"k. c #D5D5D5",
"l. c gray84",
"z. c #D8D8D8",
"x. c gray85",
"c. c #DADADA",
"v. c #DDDDDD",
"b. c #D4ECC4",
"n. c #E1E1E1",
"m. c #E6E6E6",
"M. c gray91",
"N. c #E9E9E9",
"B. c gray93",
"V. c #EFEFEF",
"C. c #E6F1E0",
"Z. c #E6F2E0",
"A. c #EDF6E0",
"S. c #EDF6E7",
"D. c #EEF5E4",
"F. c #ECF7EA",
"G. c #F1F1F1",
"H. c #FEFFFC",
"J. c gray100",
"K. c None",
/* pixels */
"K., r 6 r u a a u u r , K.K.K.K.",
"K.t &.p.h.j.h.4.;.;.O.% K.K.K.K.",
"- &.a.a.h.a.4.;.;.;.#.% K.K.K.K.",
", e.p.p.t.>.&.;.;.p.#.# K.K.K.K.",
"3 e.e.e.r 3 4 3 , * % o K.K.K.K.",
"- >.7.>.#.O.@.#. .z 6 K.K.K.K.K.",
"O ..;.;.;.;.>.7.7.7.| 3 K.K.K.K.",
"X s >.4.4.7.4.4.>.=.^ w n F K.K.",
"K.O , s l l l x o.R { q.9.W m K.",
"6 t t t t t t a B ` ' F.[ ] H N ",
"s p.h.j.x.x.x.X.G E ! S./ ~ P c ",
"h h.x.n.m.M.M.( G f.Z.J.S.Z.Y n ",
"g j.v.m.B.V.B.0.K I Q A.} ) L c ",
"# - - , - , , - M V T b._ U G 8 ",
"K.K.K.K.K.K.K.K.@ V G C V G 9 K.",
"K.K.K.K.K.K.K.K.K.  7 q 0 . K.K."
};
