/* XPM */
static char *install_gui___[] = {
/* columns rows colors chars-per-pixel */
"16 16 135 2",
"   c #313330",
".  c #3A3C38",
"X  c #3B3D39",
"o  c #40423F",
"O  c #414240",
"+  c #4D504B",
"@  c #50524E",
"#  c #595B57",
"$  c #5A5B58",
"%  c #5B5E59",
"&  c #5C5D5A",
"*  c #5F605D",
"=  c #646662",
"-  c #70726E",
";  c #737571",
":  c #7E7F7A",
">  c #7E7C7C",
",  c #93191E",
"<  c #B01F22",
"1  c #B12024",
"2  c #AE3538",
"3  c #B93C3E",
"4  c #BE5A5B",
"5  c #A96160",
"6  c #C27F7D",
"7  c #80827E",
"8  c #8F7D98",
"9  c #868984",
"0  c #8D8F8B",
"q  c #8D908B",
"w  c #90928E",
"e  c #90928F",
"r  c #939591",
"t  c #969894",
"y  c #979996",
"u  c #989995",
"i  c #989B95",
"p  c #999998",
"a  c #9B9C9A",
"s  c #9D9E9C",
"d  c #B78884",
"f  c #B78887",
"g  c #B29D98",
"h  c #9EA09B",
"j  c #9FA29C",
"k  c #928DA0",
"l  c #A79FA2",
"z  c #A69EAB",
"x  c #A89FB1",
"c  c #B89EB3",
"v  c #A1A0A2",
"b  c #A2A4A1",
"n  c #A4A7A2",
"m  c #A4A6A3",
"M  c #A9ABA7",
"N  c #B1B4AD",
"B  c #B1B4AF",
"V  c #ADA3B3",
"C  c #B3B4B2",
"Z  c #B5B8B2",
"A  c #BABBB7",
"S  c #BDBEBD",
"D  c #C0A4A1",
"F  c #CDB5AF",
"G  c #CCC1B7",
"H  c #C2AFC0",
"J  c #C3C6C1",
"K  c #C3C5C3",
"L  c #C6C7C6",
"P  c #C7CBC5",
"I  c #C7C9C7",
"U  c #C8C9C7",
"Y  c #C5C2C8",
"T  c #C7C6CB",
"R  c #CAC7C8",
"E  c #C7C8CB",
"W  c #C7CACD",
"Q  c #CCCDCC",
"!  c #CDCECD",
"~  c #D8CDC6",
"^  c #DCC1CB",
"/  c #D0C9CD",
"(  c #CFD1CC",
")  c #D7D0C5",
"_  c #D0D2CD",
"`  c #D2D2CC",
"'  c #D1D2CE",
"]  c #D2D4CF",
"[  c #CCC1D3",
"{  c #CCC5D2",
"}  c #CEC6D2",
"|  c #D1D0D1",
" . c #D3D3D3",
".. c #D4D6D2",
"X. c #D5D7D3",
"o. c #D6D7D3",
"O. c #D4D5D4",
"+. c #D7D8D4",
"@. c #D6D9D4",
"#. c #D7D9D5",
"$. c #D8D9D5",
"%. c #D8DBD7",
"&. c #DFD1DF",
"*. c #E2D3CE",
"=. c #E2DFCE",
"-. c #E9CDDA",
";. c #E2E4DF",
":. c #DCD5E2",
">. c #E0DCE9",
",. c #DFE5E9",
"<. c #E1E1E0",
"1. c #E4E4E4",
"2. c #E7E9E5",
"3. c #E9E5ED",
"4. c #EAECE8",
"5. c #ECEEEB",
"6. c #EDEEEB",
"7. c #EDEFEB",
"8. c #ECEBEE",
"9. c #EEEFEC",
"0. c #EEEFED",
"q. c #EEEEEE",
"w. c #F0F1EE",
"e. c #EEE9F0",
"r. c #EEEAF1",
"t. c #F2F1F3",
"y. c #F2F4F1",
"u. c #F3F4F2",
"i. c #F4F5F3",
"p. c #F4F5F4",
"a. c #F5F6F4",
"s. c #F8F9F8",
"d. c #FAF9FB",
"f. c #FBFAFC",
"g. c None",
/* pixels */
"g.g.g.g.g.g.g.g.g.g.a.' g.g.g.g.",
"g.g.g.q.O.S a U s.Q J $.g.g.g.g.",
"g.g.g.s $ C <.u.a.I I +.g.g.g.g.",
"g.g.g.& s p t b q.9.9.+.g.g.g.g.",
"g.g.g.* O.i.u.%.q 5.4.+.g.g.g.g.",
"g.g.g.m 9.q.@.7.n +.2.+.g.g.g.g.",
"g.g.g.O @ u J @.A r ;. .g.g.g.g.",
"g.g.g.X t M 7 q $ : N  .g.g.g.g.",
"g.g.g.7   e 9 = X + i ( g.g.g.g.",
"g.V W :.3.l O & - ; j ( g.g.g.g.",
"g.*.=.1.d.d.m 5 d g ` f g.g.g.g.",
"H -.~ Q | r.} 2 1 < 3 , g.g.g.g.",
"{ r.} 1.U >.H A F 6 4 D g.g.g.g.",
"T d.t.T ) ^ c g.j N P q g.g.g.g.",
"g.8.r.:.E G 8 g.g.g.g.g.g.g.g.g.",
"g.g.z V k g.g.g.g.g.g.g.g.g.g.g."
};
