/* XPM */
static char *install-gui[] = {
/* columns rows colors chars-per-pixel */
"32 32 151 2",
"   c black",
".  c #000C00",
"X  c #0E0E0E",
"o  c #131313",
"O  c #1B1B1B",
"+  c #002C00",
"@  c #003600",
"#  c #0C3E0C",
"$  c gray14",
"%  c #2C2C2C",
"&  c #323232",
"*  c #3B3B3B",
"=  c #004E00",
"-  c #005700",
";  c #005900",
":  c #006500",
">  c #007400",
",  c #0D740D",
"<  c #384738",
"1  c #434343",
"2  c #4B4B4B",
"3  c #525252",
"4  c #5A5A5A",
"5  c #626262",
"6  c #646864",
"7  c #6B6B6B",
"8  c #727272",
"9  c #7C7C7C",
"0  c #008C00",
"q  c #019401",
"w  c #009A00",
"e  c #089908",
"r  c #00A300",
"t  c #00AB00",
"y  c #0EA200",
"u  c #0DA50D",
"i  c #0BAD00",
"p  c #00B300",
"a  c #00BA00",
"s  c #09B600",
"d  c #0EB50E",
"f  c #13AD00",
"g  c #1FA50C",
"h  c #12AA12",
"j  c #1BA31B",
"k  c #15B400",
"l  c #18B600",
"z  c #19B900",
"x  c #11B711",
"c  c #259B25",
"v  c #2A9B2A",
"b  c #31962C",
"n  c #38912B",
"m  c #309B30",
"M  c #25AC00",
"N  c #2AB000",
"B  c #2EBA00",
"V  c #36B400",
"C  c #3EB800",
"Z  c #2DB22D",
"A  c #32A032",
"S  c #39A639",
"D  c #00C200",
"F  c #28C000",
"G  c #36C500",
"H  c #3AC100",
"J  c #2FC626",
"K  c #35C435",
"L  c #37CB35",
"P  c #419138",
"I  c #4B9F3C",
"U  c #5B9D3E",
"Y  c #4EAB00",
"T  c #46B800",
"R  c #52BD00",
"E  c #4EA03A",
"W  c #57A13F",
"Q  c #5BA23E",
"!  c #52B52B",
"~  c #64A53F",
"^  c #6FA838",
"/  c #6BBA38",
"(  c #73B638",
")  c #4AA04A",
"_  c #72B24F",
"`  c #6EAD6E",
"'  c #7DAB67",
"]  c #7CBE64",
"[  c #46CB00",
"{  c #4FC800",
"}  c #53D000",
"|  c #4FD337",
" . c #59D537",
".. c #6DC400",
"X. c #6ED800",
"o. c #62C42D",
"O. c #65D937",
"+. c #6EDC37",
"@. c #4FCD4F",
"#. c #50C650",
"$. c #56D256",
"%. c #5DD556",
"&. c #69CA4A",
"*. c #64D756",
"=. c #6DDA56",
"-. c #73DC56",
";. c #77D16B",
":. c #75D375",
">. c #73DA73",
",. c #7ED77E",
"<. c #7CDD76",
"1. c #7FE056",
"2. c #81E037",
"3. c #8ACA7E",
"4. c #86E176",
"5. c #838383",
"6. c #8B8B8B",
"7. c #939393",
"8. c #9C9C9C",
"9. c #84AB84",
"0. c #A4A4A4",
"q. c #AAAAAA",
"w. c #B2B2B2",
"e. c #BBBBBB",
"r. c #9EC39C",
"t. c #93DC91",
"y. c #99D798",
"u. c #94E194",
"i. c #A0D99E",
"p. c #ACDA9C",
"a. c #A0E0A0",
"s. c #AFE6AF",
"d. c #B6EAB6",
"f. c #C2C2C2",
"g. c #CBCBCB",
"h. c #C9DEC8",
"j. c #D2D2D2",
"k. c #DCDCDC",
"l. c #CDE1C8",
"z. c #D2E3C8",
"x. c #D4EBC8",
"c. c #D8E9CB",
"v. c #DCECD5",
"b. c #DDEFDB",
"n. c #E1ECD4",
"m. c #E3E3E3",
"M. c #EBEBEB",
"N. c gray95",
"B. c #F8FBF3",
"V. c gray100",
"C. c None",
/* pixels */
"C.C.C.C.C.C.% * 1 2 2 2 2 3 3 2 2 3 2 2 2 1 C.C.C.C.C.C.C.C.C.C.",
"C.C.C.$ 1 1 2 2 1 2 4 5 5 5 6 4 4 4 4 4 2 1 & C.C.C.C.C.C.C.C.C.",
"C.C.% 1 2 5.e.g.g.j.j.j.j.j.g.w.w.w.q.w.w.4 &   C.C.C.C.C.C.C.C.",
"C.  * 4 f.g.g.j.j.j.k.j.j.e.w.w.w.q.w.w.w.6 $   C.C.C.C.C.C.C.C.",
"C.& 2 e.g.g.j.j.j.j.g.j.e.w.w.w.w.w.w.w.w.6 %   C.C.C.C.C.C.C.C.",
"  * 7.g.g.g.g.g.g.g.g.e.q.w.w.q.w.q.q.w.f.7 &   C.C.C.C.C.C.C.C.",
"$ * w.f.g.g.g.g.g.g.f.q.w.w.w.w.w.e.f.j.j.8 %   C.C.C.C.C.C.C.C.",
"$ * e.f.g.f.f.f.f.w.q.q.0.q.0.0.q.q.e.e.w.3 $   C.C.C.C.C.C.C.C.",
"% 1 e.f.f.e.f.e.4 & & & % & & % % % % % $ $ o   C.C.C.C.C.C.C.C.",
"$ 2 e.e.e.e.f.w.2 * * * * * * * % O o o o X   C.C.C.C.C.C.C.C.C.",
"O 1 e.e.e.e.e.e.6.4 3 4 4 3 4 4 3 3 2 1 %   C.C.C.C.C.C.C.C.C.C.",
"O * w.e.e.e.w.w.w.w.w.w.w.e.e.e.e.e.q.4 2 1 C.C.C.C.C.C.C.C.C.C.",
"o & 8.w.w.w.w.w.q.w.w.w.q.e.e.e.e.e.e.e.5.1 % C.C.C.C.C.C.C.C.C.",
"  $ 4 w.w.w.w.w.e.w.w.e.w.e.e.e.e.e.e.e.e.3 * C.C.C.C.C.C.C.C.C.",
"  o * 7.w.w.e.e.e.e.e.e.e.e.e.e.e.w.e.w.w.7.< , r   C.C.C.C.C.C.",
"C.  O * 6.e.e.e.e.e.f.f.e.e.e.f.e.e.e.9.v w u j q 0 w w C.C.C.C.",
"C.C.  O % 2 7 7.8.8.8.0.0.8.8.e.e.e.A q #.y.d.d.s.,.j q 0 C.C.C.",
"C.C.C.  o O O $ % $ % $ % % % 2 e.m e :.u.u.y.a.t.u.u.Z q w C.C.",
"C.% & & % % O o o o o o o o O 2 ) w @.>.<.;.b.V.t.4.;.>.h 0 ; C.",
"& 1 2 2 2 3 3 3 3 3 3 3 3 3 3 5 e d $.%.=.&.v.V.] 1.-.*.K q 0 C.",
"% 4 f.g.g.g.g.g.g.g.j.g.g.j.g.` r x L | O.o.c.V._ 2.+. .J p 0   ",
"% 9 j.j.j.k.k.k.m.m.m.m.m.m.k.m r t b I W U v.V.' ~ Q I g t w @ ",
"$ 9 j.j.j.m.m.m.m.M.M.M.M.m.b.c r w h.V.V.V.V.V.V.V.V.V.P a q > ",
"% 9 j.k.k.m.m.M.M.M.N.M.M.M.m.v t r r.l.l.z.B.V.n.z.z.h.n p r q ",
"% 9 j.k.b.m.m.M.N.N.N.N.N.N.m.S r a i N T Y c.V.^ ..R V z p r + ",
"$ 5 j.k.k.m.m.M.M.M.N.N.N.M.m.9.p a s B [ R x.V.( X.} G s p w   ",
"$ $ * * 1 1 1 1 1 2 1 2 2 1 2 * e t p k B T x.V./ { C l t p >   ",
"  O O O O O O O O O O O O O O O # a t r k M p.x.! B k t a w   C.",
"C.    C.C.C.C.C.C.C.C.C.C.C.C.    : a r r r y y i r t a r .   C.",
"C.C.C.C.C.C.C.C.C.C.C.C.C.C.C.C.    - p a a a t a D a 0 .   C.C.",
"C.C.C.C.C.C.C.C.C.C.C.C.C.C.C.C.C.      = w r t r > .     C.C.C.",
"C.C.C.C.C.C.C.C.C.C.C.C.C.C.C.C.C.C.C.                  C.C.C.C."
};
