/* XPM */
static char *install-gui[] = {
/* columns rows colors chars-per-pixel */
"32 32 152 2",
"   c #000000",
".  c #000900",
"X  c #0A0A0A",
"o  c #001000",
"O  c #141414",
"+  c #1C1C1C",
"@  c #003400",
"#  c #1C291C",
"$  c gray14",
"%  c #292929",
"&  c #333333",
"*  c #3A3A3A",
"=  c #004B00",
"-  c #005100",
";  c #015F01",
":  c #154115",
">  c #006E00",
",  c #1E731E",
"<  c #2B442B",
"1  c #246A24",
"2  c #434343",
"3  c #474947",
"4  c #4B4B4B",
"5  c #535353",
"6  c #5C5C5C",
"7  c #626262",
"8  c #6B6B6B",
"9  c #717171",
"0  c #7D7D7D",
"q  c #008100",
"w  c #018A01",
"e  c #019401",
"r  c #009B00",
"t  c #089C08",
"y  c #158515",
"u  c #159415",
"i  c #00A400",
"p  c #00AA00",
"a  c #0DA000",
"s  c #0AA900",
"d  c #00B300",
"f  c #00BA00",
"g  c #0AB600",
"h  c #12AD00",
"j  c #1EA20C",
"k  c #14A414",
"l  c #16B400",
"z  c #19B900",
"x  c #10B410",
"c  c #14BB14",
"v  c #1BB11B",
"b  c #229922",
"n  c #2B9F2B",
"m  c #3A8F30",
"M  c #329324",
"N  c #3A9735",
"B  c #25AC00",
"V  c #2CB300",
"C  c #2EBA00",
"Z  c #3AB600",
"A  c #20A420",
"S  c #28A028",
"D  c #36A536",
"F  c #28C000",
"G  c #35C500",
"H  c #39C100",
"J  c #2BC423",
"K  c #2BC02B",
"L  c #34C434",
"P  c #35CC33",
"I  c #4FAB00",
"U  c #48BC00",
"Y  c #50BC00",
"T  c #4BB324",
"R  c #6CA730",
"E  c #65B830",
"W  c #6FB630",
"Q  c #5F9D46",
"!  c #53A043",
"~  c #5DA245",
"^  c #68A646",
"/  c #6FB248",
"(  c #78BC5E",
")  c #7CAB67",
"_  c #7EAC7E",
"`  c #46CB00",
"'  c #4DC800",
"]  c #54C000",
"[  c #52CF00",
"{  c #4FD336",
"}  c #58D536",
"|  c #6FC800",
" . c #6DD700",
".. c #60C22B",
"X. c #65D936",
"o. c #6DDC36",
"O. c #55CA55",
"+. c #56D156",
"@. c #5DD656",
"#. c #67C849",
"$. c #64D756",
"%. c #6DDA56",
"&. c #73DC56",
"*. c #75CF6A",
"=. c #73D973",
"-. c #7BD47B",
";. c #7CDE76",
":. c #7FE056",
">. c #80E036",
",. c #87CB7A",
"<. c #86E176",
"1. c #838383",
"2. c #8C8C8C",
"3. c #939393",
"4. c #9C9C9C",
"5. c #80AC80",
"6. c #9DB19D",
"7. c #A5A5A5",
"8. c #AAAAAA",
"9. c #B5B5B5",
"0. c #B3B9B3",
"q. c #BCBCBC",
"w. c #9EC39C",
"e. c #92DB90",
"r. c #9CD99B",
"t. c #93E193",
"y. c #ABDA9C",
"u. c #A5C3A5",
"i. c #A2DBA0",
"p. c #B0C6B0",
"a. c #A6E2A6",
"s. c #B2E7B2",
"d. c #B5EAB5",
"f. c #C2C2C2",
"g. c #CCCCCC",
"h. c #C5DCC0",
"j. c #C8DEC0",
"k. c #D2D2D2",
"l. c #DBDBDB",
"z. c #CCE0C0",
"x. c #CBE9C0",
"c. c #DAE7CC",
"v. c #D1E4D0",
"b. c #DDEDD1",
"n. c #E3F0DB",
"m. c #E3E3E3",
"M. c #EBEBEB",
"N. c #E3F3E0",
"B. c gray94",
"V. c #F9FCF4",
"C. c gray100",
"Z. c None",
/* pixels */
"Z.Z.Z.Z.Z.& & * 2 6 0 2.4.4.4.4.3.2.1.0 7 2 * * & & & Z.Z.Z.Z.Z.",
"Z.Z.Z.  4 3 5 2.f.g.g.k.k.g.l.g.f.q.9.9.9.9.8.2.7 & & Z.Z.Z.Z.Z.",
"Z.Z.  3 2 5 f.g.k.k.k.k.k.k.f.9.q.9.q.9.q.9.q.g.4.& & Z.Z.Z.Z.Z.",
"Z.  & % 3 f.k.g.g.k.k.l.k.f.q.9.9.9.9.9.9.9.q.g.4.* & Z.Z.Z.Z.Z.",
"Z.$ $ & 4.g.g.k.g.k.k.g.f.9.9.9.9.9.9.9.9.9.f.g.4.* & Z.Z.Z.Z.Z.",
"  X % 2 f.g.k.g.g.g.g.f.9.9.8.8.8.9.9.q.f.g.f.g.4.* & Z.Z.Z.Z.Z.",
"  X & 6 g.g.g.g.g.g.f.7.6 3 3 2 2 3 4 7 3.9.f.g.4.* & Z.Z.Z.Z.Z.",
"    & 9 f.g.f.f.f.f.9.6 & & & & & & & & * 2 2 0 0 * & Z.Z.Z.Z.Z.",
"    & 9 f.f.f.f.f.7.7.5 $ + O X           X % * 2 * & Z.Z.Z.Z.Z.",
"    & 5 f.f.f.f.9.9.9.8.3.9 6 5 3 * & % + X   & & & & Z.Z.Z.Z.Z.",
"    & 3 q.f.f.q.9.9.9.9.9.9.9.9.8.3.0 6 3 * & & Z.Z.Z.Z.Z.Z.Z.Z.",
"    & * 7.f.9.9.9.9.9.9.9.9.f.f.f.f.f.f.9.4.6 2 & & Z.Z.Z.Z.Z.Z.",
"      & 6 9.9.9.9.9.9.9.9.f.f.f.f.f.f.q.f.f.f.2.4 & & Z.Z.Z.Z.Z.",
"      & * 0 9.9.q.q.q.9.q.9.q.q.q.q.f.q.f.p.q.g.7.3 & Z.Z.Z.Z.Z.",
"        & * 9 9.q.f.f.f.f.q.f.9.q.9.q.9.q.0.6.u.p.0 * & Z.Z.Z.Z.",
"Z.        & & 3 8 4.9.q.f.f.f.f.f.f.q._ b e k A e u , & Z.Z.Z.Z.",
"Z.Z.O         & & * 3 6 8 1.4.7.9.q.n e O.a.d.d.d.-.v t w Z.Z.Z.",
"Z.Z.& & $ X         X O O O $ * 3 y t -.t.t.r.i.e.t.t.v e r Z.Z.",
"Z.  & 3 5 2 & $ X           X $ w e O.=.;.*.N.C.e.<.;.*.c e - Z.",
"  3 2 5 9.4.8 5 3 2 2 2 2 2 * # w x +.@.%.#.b.C.( &.&.$.L i e Z.",
"  X % 3 g.k.l.f.8.2.7 5 4 4 4 1 r x P { X...b.C./ o.o.{ J i e   ",
"    & 3 g.k.l.l.l.l.l.l.k.g.g.b i d N ! ~ Q n.C.) ^ ~ Q j p e @ ",
"    & 2 k.l.l.l.m.m.m.m.m.m.l.u d e v.C.C.C.C.C.C.C.C.C.m f e > ",
"    & 2 k.l.m.m.m.m.m.m.m.M.l.n d i w.h.j.z.V.C.c.z.j.h.M d i w ",
"    & 2 k.m.m.m.M.M.M.M.M.M.l.D p f h V U I b.C.R | Y Z z d i . ",
"    & * 9 4.q.l.M.M.M.B.M.M.m._ d d g C ` Y b.C.W  .[ G g d e   ",
"    + % & & * * 5 1.4.7.9.f.f.9.k p p l C Z b.C.E ' H l p d >   ",
"            X O + + + $ % $ % % : d p p h B y.x.T C h p f e   Z.",
"Z.    Z.Z.Z.Z.Z.Z.Z.Z.Z.& & & & O ; d p p i t a s i p f e .   Z.",
"Z.Z.Z.Z.Z.Z.Z.Z.Z.Z.Z.Z.Z.Z.Z.Z.    = p f f d i d f f q .   Z.Z.",
"Z.Z.Z.Z.Z.Z.Z.Z.Z.Z.Z.Z.Z.Z.Z.Z.Z.      = e r i e > .     Z.Z.Z.",
"Z.Z.Z.Z.Z.Z.Z.Z.Z.Z.Z.Z.Z.Z.Z.Z.Z.Z.Z.                Z.Z.Z.Z.Z."
};
