/* XPM */
static char *install_gui___[] = {
/* columns rows colors chars-per-pixel */
"16 16 135 2",
"   c #313330",
".  c #3A3C38",
"X  c #3B3D39",
"o  c #40423F",
"O  c #414240",
"+  c #4D504B",
"@  c #50524E",
"#  c #595B57",
"$  c #5A5B58",
"%  c #5B5E59",
"&  c #5C5D5A",
"*  c #5F605D",
"=  c #646662",
"-  c #70726E",
";  c #737571",
":  c #7E7F7A",
">  c #7E7C7C",
",  c #93191E",
"<  c #BF484B",
"1  c #AF6C6B",
"2  c #C05052",
"3  c #C06365",
"4  c #C56D6E",
"5  c #CD7072",
"6  c #80827E",
"7  c #8F7D98",
"8  c #868984",
"9  c #8D8F8B",
"0  c #8D908B",
"q  c #90928E",
"w  c #90928F",
"e  c #939591",
"r  c #969894",
"t  c #979996",
"y  c #989995",
"u  c #989B95",
"i  c #999998",
"p  c #9B9C9A",
"a  c #9D9E9C",
"s  c #B78887",
"d  c #B88A86",
"f  c #B39E99",
"g  c #9EA09B",
"h  c #9FA29C",
"j  c #928DA0",
"k  c #A79FA2",
"l  c #A69EAB",
"z  c #A89FB1",
"x  c #B89EB3",
"c  c #A1A0A2",
"v  c #A2A4A1",
"b  c #A4A7A2",
"n  c #A4A6A3",
"m  c #A9ABA7",
"M  c #B1B4AD",
"N  c #B1B4AF",
"B  c #ADA3B3",
"V  c #B3B4B2",
"C  c #B5B8B2",
"Z  c #BABBB7",
"A  c #BDBEBD",
"S  c #C98E8C",
"D  c #C0A4A1",
"F  c #CEB6B1",
"G  c #CCC1B7",
"H  c #C2AFC0",
"J  c #C3C6C1",
"K  c #C3C5C3",
"L  c #C6C7C6",
"P  c #C7CBC5",
"I  c #C7C9C7",
"U  c #C8C9C7",
"Y  c #C5C2C8",
"T  c #C7C6CB",
"R  c #CAC7C8",
"E  c #C7C8CB",
"W  c #C7CACD",
"Q  c #CCCDCC",
"!  c #CDCECD",
"~  c #D8CDC6",
"^  c #DCC1CB",
"/  c #D0C9CD",
"(  c #CFD1CC",
")  c #D7D0C5",
"_  c #D0D2CD",
"`  c #D2D2CC",
"'  c #D1D2CE",
"]  c #D2D4CF",
"[  c #CCC1D3",
"{  c #CCC5D2",
"}  c #CEC6D2",
"|  c #D1D0D1",
" . c #D3D3D3",
".. c #D4D6D2",
"X. c #D5D7D3",
"o. c #D6D7D3",
"O. c #D4D5D4",
"+. c #D7D8D4",
"@. c #D6D9D4",
"#. c #D7D9D5",
"$. c #D8D9D5",
"%. c #D8DBD7",
"&. c #DFD1DF",
"*. c #E2D3CE",
"=. c #E2DFCE",
"-. c #E9CDDA",
";. c #E2E4DF",
":. c #DCD5E2",
">. c #E0DCE9",
",. c #DFE5E9",
"<. c #E1E1E0",
"1. c #E4E4E4",
"2. c #E7E9E5",
"3. c #E9E5ED",
"4. c #EAECE8",
"5. c #ECEEEB",
"6. c #EDEEEB",
"7. c #EDEFEB",
"8. c #ECEBEE",
"9. c #EEEFEC",
"0. c #EEEFED",
"q. c #EEEEEE",
"w. c #F0F1EE",
"e. c #EEE9F0",
"r. c #EEEAF1",
"t. c #F2F1F3",
"y. c #F2F4F1",
"u. c #F3F4F2",
"i. c #F4F5F3",
"p. c #F4F5F4",
"a. c #F5F6F4",
"s. c #F8F9F8",
"d. c #FAF9FB",
"f. c #FBFAFC",
"g. c None",
/* pixels */
"g.g.g.g.g.g.g.g.g.g.a.' g.g.g.g.",
"g.g.g.q.O.A p U s.Q J $.g.g.g.g.",
"g.g.g.a $ V <.u.a.I I +.g.g.g.g.",
"g.g.g.& a i r v q.9.9.+.g.g.g.g.",
"g.g.g.* O.i.u.%.0 5.4.+.g.g.g.g.",
"g.g.g.n 9.q.@.7.b +.2.+.g.g.g.g.",
"g.g.g.O @ y J @.Z e ;. .g.g.g.g.",
"g.g.g.X r m 6 0 $ : M  .g.g.g.g.",
"g.g.g.6   0 8 = X + u ( g.g.g.g.",
"g.B W :.3.k o * - ; h ] g.g.g.g.",
"g.*.=.1.f.f.n 1 d f ` d g.g.g.g.",
"H -.~ Q | e.} 3 5 < < , g.g.g.g.",
"{ r.} 1.U >.H Z F S 4 D g.g.g.g.",
"T f.t.T ) ^ x g.g C P 0 g.g.g.g.",
"g.8.e.:.E G 7 g.g.g.g.g.g.g.g.g.",
"g.g.l z j g.g.g.g.g.g.g.g.g.g.g."
};
