/* XPM */
static char *install_gui[] = {
/* columns rows colors chars-per-pixel */
"32 32 186 2",
"   c #2C2E2A",
".  c #3C2C2D",
"X  c #2E302C",
"o  c #30322E",
"O  c #343631",
"+  c #373936",
"@  c #383936",
"#  c #3D3E3B",
"$  c #770E12",
"%  c #791317",
"&  c #473331",
"*  c #4F3F3C",
"=  c #3E403C",
"-  c #434543",
";  c #474945",
":  c #4C4E4B",
">  c #4F514E",
",  c #545551",
"<  c #565854",
"1  c #585B57",
"2  c #595C58",
"3  c #61625E",
"4  c #636561",
"5  c #676964",
"6  c #696B67",
"7  c #6C6D69",
"8  c #6F716D",
"9  c #71736F",
"0  c #6E6C70",
"q  c #747673",
"w  c #767874",
"e  c #787976",
"r  c #7D7F7B",
"t  c #AA1318",
"y  c #883537",
"u  c #AF2124",
"i  c #B5292D",
"p  c #B33C3F",
"a  c #BA3D41",
"s  c #BF4A4C",
"d  c #B95E5E",
"f  c #8B6A66",
"g  c #847A76",
"h  c #B07574",
"j  c #C34C4E",
"k  c #C35356",
"l  c #C35C5D",
"z  c #C75E61",
"x  c #C36465",
"c  c #C86265",
"v  c #C96568",
"b  c #CD6F72",
"n  c #C27676",
"m  c #CE7477",
"M  c #CF787B",
"N  c #D17B7E",
"B  c #7F827D",
"V  c #80827D",
"C  c #907D9F",
"Z  c #848682",
"A  c #868985",
"S  c #898B87",
"D  c #8C8D8B",
"F  c #8E908D",
"G  c #91938E",
"H  c #8C8393",
"J  c #959693",
"K  c #969993",
"L  c #999B96",
"P  c #97959A",
"I  c #99949A",
"U  c #9C9E9B",
"Y  c #AE8482",
"T  c #B98188",
"R  c #AF9390",
"E  c #B19996",
"W  c #9FA19C",
"Q  c #A1A39F",
"!  c #9F87A0",
"~  c #A39EA9",
"^  c #B39CAB",
"/  c #B29CB1",
"(  c #9EA0A0",
")  c #A3A5A2",
"_  c #A9ABA6",
"`  c #AAACAA",
"'  c #BAAEAA",
"]  c #AFB1AC",
"[  c #B1B4AE",
"{  c #B9ABB5",
"}  c #B4AEBA",
"|  c #B8ADBD",
" . c #B2B4B2",
".. c #B6BAB4",
"X. c #BABCB6",
"o. c #B6B1BB",
"O. c #BBBCBA",
"+. c #C68382",
"@. c #C88886",
"#. c #C69591",
"$. c #C89191",
"%. c #CDAFAB",
"&. c #C0BABE",
"*. c #C1C3BE",
"=. c #CBC5B9",
"-. c #D5C3BD",
";. c #D6CCBE",
":. c #BFB4C6",
">. c #B4B9C4",
",. c #BCBDC4",
"<. c #C1BFC5",
"1. c #C5BCCC",
"2. c #D2B2C5",
"3. c #D8BDC7",
"4. c #D4B6CB",
"5. c #D2B8CB",
"6. c #DBBBCE",
"7. c #C1BDD1",
"8. c #BFC2C2",
"9. c #C4C7C1",
"0. c #CFC7C1",
"q. c #C7C8C5",
"w. c #CCC8C6",
"e. c #C7C6CA",
"r. c #CCCDCB",
"t. c #D2CEC3",
"y. c #DDCCC6",
"u. c #D7C2CA",
"i. c #D6CDCB",
"p. c #DDCDCC",
"a. c #DED6C5",
"s. c #DED9C7",
"d. c #D3D6CE",
"f. c #DFDBCA",
"g. c #C2C5D4",
"h. c #CFC3D7",
"j. c #C8CDD0",
"k. c #C4CAD9",
"l. c #D1C3D6",
"z. c #DAC7D7",
"x. c #D6CDDC",
"c. c #CAD3D8",
"v. c #D3D4D2",
"b. c #D5D9D2",
"n. c #D9DBD7",
"m. c #D3D6DD",
"M. c #DAD5DE",
"N. c #DDDEDC",
"B. c #E0C5CF",
"V. c #E4D3CD",
"C. c #E2D9C9",
"Z. c #E3C4D6",
"A. c #E3CAD1",
"S. c #E2C9D9",
"D. c #E7D7D0",
"F. c #EEDED6",
"G. c #E3D4DB",
"H. c #EBD2DB",
"J. c #DDE1DD",
"K. c #E9E1CE",
"L. c #E3E3D0",
"P. c #E1E3DF",
"I. c #D6D4E1",
"U. c #DDD5E3",
"Y. c #D7DEE6",
"T. c #DFDBE3",
"R. c #DADAE8",
"E. c #E3D0E1",
"W. c #E2DDE4",
"Q. c #E4DEE9",
"!. c #E4E6E2",
"~. c #E7E8E5",
"^. c #E9EAE6",
"/. c #E7E1EA",
"(. c #E9E4ED",
"). c #ECEDEA",
"_. c #EFF0EE",
"`. c #F0F1EF",
"'. c #EDEBF1",
"]. c #F0EEF3",
"[. c #F3F4F3",
"{. c #F7F8F6",
"}. c #F8F8F7",
"|. c #F7F5F9",
" X c #FBFBFC",
".X c None",
/* pixels */
".X.X.X.X.X.X.X.X.X.X.X.X.X.X.X.X.X.X.X.X.X.X.X.X.X.X.X.X.X.X.X.X",
".X.X.X.X.X.X.X.X.X.X.X.X.X.X.X.X[.).[._._.{.).] ` .X.X.X.X.X.X.X",
".X.X.X.X.X.X.X.X(.N.r.v.[.r.). X X X).` W [.).9.X..X.X.X.X.X.X.X",
".X.X.X.X.X^. X Xv. .v.D <   , !.{.}.).j. .[.^.9.X..X.X.X.X.X.X.X",
".X.X.X.X.X.XO.F @   , D b...^.{.[.[.).` ` [.^.*.X..X.X.X.X.X.X.X",
".X.X.X.X.X.XO.6   v. X}.}.{.{.{.[.[.).) ) _.^.9.X..X.X.X.X.X.X.X",
".X.X.X.X.X.Xe # r ).O.J A ) r.[.[.`.`.`._._.!.9.X..X.X.X.X.X.X.X",
".X.X.X.X.X.X4 4 U ; 9 U _ S < q P.`.`.`._.).!.9.X..X.X.X.X.X.X.X",
".X.X.X.X.X.Xe   e ^.{.{.[.[._.K : !._.^._.^.^.9.X..X.X.X.X.X.X.X",
".X.X.X.X.X.X: D {.[.[.[.[._._._.L w )._.^.^.!.9.X..X.X.X.X.X.X.X",
".X.X.X.X.X.X: [.[.[.[._._._._._.^.: b.^.^.^.P.9.X..X.X.X.X.X.X.X",
".X.X.X.X.X.XD !.!._.[.P.Q J._.^.d.F _ ^.!.^.^.9.X..X.X.X.X.X.X.X",
".X.X.X.X.X.X6   X 8 r._.P.e 9._..._ Z r.^.P.P.9.X..X.X.X.X.X.X.X",
".X.X.X.X.X.X@   , , X q q.^.r.^.J.Q < ] b.!.P.9.X..X.X.X.X.X.X.X",
".X.X.X.X.X.X#   K _.v.W 6 3 S F J X 2 5 9 P.J.9..X.X.X.X.X.X.X.X",
".X.X.X.X.X.X;   # S J L W L F A 6 X J W S !.J.9..X.X.X.X.X.X.X.X",
".X.X.X.X.X.Xr 6     8 J J ] X.G -     8 W J.J.*..X.X.X.X.X.X.X.X",
".X.X.X.X.X.XP 0 -   A *.D 1 X   ,   X 6 O Q J.*..X.X.X.X.X.X.X.X",
".X.X.X.X,.k.R.Q.(.T.P X       + 3 X   B 9 F J.9..X.X.X.X.X.X.X.X",
".X.X<.t.d.c.Y.(.'.|. Xe.# 7 3  .B ..W B W b.n.*.3 .X.X.X.X.X.X.X",
".X.Xp.C.C.n.Y.'.[. X X Xo.f Y g Q *.J.w b.d.n.E * .X.X.X.X.X.X.X",
".X5.A.D.K.L.Y._. X X X|.].T k a s d @.R t.t.#.% & .X.X.X.X.X.X.X",
".XZ.Z.H.K.C.X.8.n.|.].].(.{ c z m b s i u l t $ . .X.X.X.X.X.X.X",
"| E.E.H.H.w._.T.~.T.'.Q.U.1.h k v N k k M k t y .X.X.X.X.X.X.X.X",
"1.Q.(.(.G.[..X.X).<.W.U.x.l.q ..%.+.x v m j p X..X.X.X.X.X.X.X.X",
"} (.'.|.|./.[..X}.3.Z.z.5.:.b.b.b.d.b.=.#.n i.*..X.X.X.X.X.X.X.X",
"} '.|. X XT.W.^.t.V.p.6.5./ .XK [ d.d.b.b.*.n.B .X.X.X.X.X.X.X.X",
".X]. X X X[./.m.d.a.y.3.4.! .X.X.X.XF _ b.*.Q .X.X.X.X.X.X.X.X.X",
".X<. X X|.).Q.I.j.t.;.-.^ .X.X.X.X.X.X.X.XW .X.X.X.X.X.X.X.X.X.X",
".X.Xe.|.'./.U.x.g.9.=.' C .X.X.X.X.X.X.X.X.X.X.X.X.X.X.X.X.X.X.X",
".X.X.X~ U.U.x.l.7.>.I .X.X.X.X.X.X.X.X.X.X.X.X.X.X.X.X.X.X.X.X.X",
".X.X.X.X.X.XH H .X.X.X.X.X.X.X.X.X.X.X.X.X.X.X.X.X.X.X.X.X.X.X.X"
};
