/* XPM */
static char *install_gui[] = {
/* columns rows colors chars-per-pixel */
"32 32 184 2",
"   c #2C2E2A",
".  c #3C2C2D",
"X  c #2E302C",
"o  c #30322E",
"O  c #333631",
"+  c #373936",
"@  c #383936",
"#  c #3D3E3B",
"$  c #770E12",
"%  c #791317",
"&  c #473331",
"*  c #4F3F3C",
"=  c #3E403C",
"-  c #434543",
";  c #474945",
":  c #4C4E4B",
">  c #4F514E",
",  c #535551",
"<  c #565854",
"1  c #585B57",
"2  c #595C58",
"3  c #61625E",
"4  c #636661",
"5  c #676965",
"6  c #696B67",
"7  c #6C6C6A",
"8  c #6F716D",
"9  c #71736F",
"0  c #747673",
"q  c #767874",
"w  c #787976",
"e  c #7D7F7B",
"r  c #A91217",
"t  c #AF181C",
"y  c #AF1B20",
"u  c #883537",
"i  c #B9363A",
"p  c #B33A3E",
"a  c #BA3A3E",
"s  c #B83E40",
"d  c #B64344",
"f  c #BF4B4E",
"g  c #8B6966",
"h  c #837A75",
"j  c #AC6E6D",
"k  c #C34A4D",
"l  c #C25356",
"z  c #C2585A",
"x  c #C55D60",
"c  c #C95D60",
"v  c #C76466",
"b  c #C86668",
"n  c #C17173",
"m  c #C27A77",
"M  c #7F827D",
"N  c #917F9F",
"B  c #8F79A6",
"V  c #848681",
"C  c #868885",
"Z  c #898B87",
"A  c #8D8E8B",
"S  c #8F908D",
"D  c #91938E",
"F  c #8C8393",
"G  c #949693",
"H  c #969994",
"J  c #999B97",
"K  c #96949A",
"L  c #99959A",
"P  c #9C9E9A",
"I  c #AD8482",
"U  c #B88188",
"Y  c #B19895",
"T  c #B69C99",
"R  c #9EA09D",
"E  c #A1A39F",
"W  c #A087A0",
"Q  c #A199A8",
"!  c #B29CAB",
"~  c #B29CB0",
"^  c #A3A5A2",
"/  c #A7A9A6",
"(  c #A9ABA6",
")  c #ABADAA",
"_  c #BAAEAA",
"`  c #AFB1AD",
"'  c #B1B5AE",
"]  c #B8AAB4",
"[  c #B6ADBB",
"{  c #B3B4B4",
"}  c #B7B9B3",
"|  c #BABDB6",
" . c #B6B0BC",
".. c #BCBBBB",
"X. c #CA8584",
"o. c #D28183",
"O. c #D68B8D",
"+. c #C7918F",
"@. c #C69390",
"#. c #D19C9A",
"$. c #CCAFAA",
"%. c #C1C3BE",
"&. c #CBC4B8",
"*. c #D5C2BD",
"=. c #D6CCBD",
"-. c #BFB4C5",
";. c #B4B8C4",
":. c #BDBBC3",
">. c #C2BDC7",
",. c #C4BBCC",
"<. c #D2B1C5",
"1. c #D8BDC6",
"2. c #D4B6CA",
"3. c #D2B8CB",
"4. c #DABBCD",
"5. c #C1BDD0",
"6. c #BFC2C1",
"7. c #C4C6C0",
"8. c #C6C8C4",
"9. c #CECBC4",
"0. c #C7C6C9",
"q. c #CCCDCA",
"w. c #D2CCC3",
"e. c #DDCCC5",
"r. c #D6C2CA",
"t. c #D6CCCA",
"y. c #DDCDCC",
"u. c #CFD2CD",
"i. c #DDD5C5",
"p. c #DED8C7",
"a. c #D3D6CE",
"s. c #D8D5CD",
"d. c #DFDBC9",
"f. c #C1C5D3",
"g. c #CEC3D6",
"h. c #C7CDD0",
"j. c #C3CAD9",
"k. c #D0C3D5",
"l. c #DAC6D7",
"z. c #D5CCDC",
"x. c #CAD3D7",
"c. c #D3D4D2",
"v. c #D6D9D3",
"b. c #D9DBD6",
"n. c #D3D7DE",
"m. c #D9D3DE",
"M. c #DDDEDC",
"N. c #E0C5CF",
"B. c #E5D5CE",
"V. c #E2D8C9",
"C. c #E3C4D6",
"Z. c #E2C9D1",
"A. c #E1C9D9",
"S. c #E9D0D7",
"D. c #EEDED5",
"F. c #E4D2DD",
"G. c #ECD2DD",
"H. c #DEE0DD",
"J. c #E8E1CE",
"K. c #E3E2D0",
"L. c #E1E3DF",
"P. c #D6D4E1",
"I. c #DCD5E3",
"U. c #D7DDE5",
"Y. c #DDDBE4",
"T. c #E0D0E0",
"R. c #E1DCE4",
"E. c #E3DDE9",
"W. c #E5E6E3",
"Q. c #E7E9E5",
"!. c #E9EAE7",
"~. c #E7E3EB",
"^. c #EAE3ED",
"/. c #ECEDEB",
"(. c #EFF0EE",
"). c #F0F2EF",
"_. c #EEEBF2",
"`. c #F1EEF2",
"'. c #F3F4F3",
"]. c #F7F8F7",
"[. c #F8F9F7",
"{. c #F7F4F8",
"}. c #FBFBFB",
"|. c None",
/* pixels */
"|.|.|.|.|.|.|.|.|.|.|.|.|.|.|.|.|.|.|.|.|.|.|.|.|.|.|.|.|.|.|.|.",
"|.|.|.|.|.|.|.|.|.|.|.|.|.|.|.|.'./.(.(.).'.!.' ( |.|.|.|.|.|.|.",
"|.|.|.|.|.|.|.|.^.M.0.c.'.q./.}.[.[.)./ R '.!.8.| |.|.|.|.|.|.|.",
"|.|.|.|.|.!.}.}.s.` x.A <   , W.[.{./.q.} ).!.%.| |.|.|.|.|.|.|.",
"|.|.|.|.|.|...S @   , A b.' !.[.{.{./.) ) (.Q.%.| |.|.|.|.|.|.|.",
"|.|.|.|.|.|...6   c.}.}.[.].].'.'.'.!.^ ^ (.Q.%.| |.|.|.|.|.|.|.",
"|.|.|.|.|.|.q # e /...G C ^ u.).).).).(.(.(.W.8.| |.|.|.|.|.|.|.",
"|.|.|.|.|.|.4 4 P ; 9 P / Z < 9 H.).).(.(./.W.%.| |.|.|.|.|.|.|.",
"|.|.|.|.|.|.q   q !.'.'.'.'.(.H : L.(././.!.Q.%.| |.|.|.|.|.|.|.",
"|.|.|.|.|.|.: A {.{.'.'.).).).(.R 0 /./.!.!.Q.%.| |.|.|.|.|.|.|.",
"|.|.|.|.|.|.: '.'.'.'.).).(.(.(.L.: v.!.Q.Q.Q.%.| |.|.|.|.|.|.|.",
"|.|.|.|.|.|.A L.L.).).L.E H.!.(.u.D ( Q.Q.Q.Q.8.| |.|.|.|.|.|.|.",
"|.|.|.|.|.|.6   o 8 u./.L.q %.!.} ) V u.Q.L.L.&.| |.|.|.|.|.|.|.",
"|.|.|.|.|.|.@   , , X 0 8.!.q.Q.H.E < ( v.L.L.%.| |.|.|.|.|.|.|.",
"|.|.|.|.|.|.#   H (.a.R 6 3 Z S D X 1 5 8 L.L.%.|.|.|.|.|.|.|.|.",
"|.|.|.|.|.|.;   = Z G J R J S C 6 X H R Z L.H.8.|.|.|.|.|.|.|.|.",
"|.|.|.|.|.|.e 6     9 G D ` | D ;     8 R K.H.%.|.|.|.|.|.|.|.|.",
"|.|.|.|.|.|.K 9 -   C %.S 1 X   ,   X 5 O E b.%.|.|.|.|.|.|.|.|.",
"|.|.|.|.:.j.I.E.~.R.L         @ 3 X   M 9 D H.%.|.|.|.|.|.|.|.|.",
"|.|.-.t.a.x.U.~._.'.}.0.# 7 3 ' M } R M E a.v.%.3 |.|.|.|.|.|.|.",
"|.|.y.V.d.v.U._.`.}.}.}.$.g I h E %.H.q d.u.H.Y * |.|.|.|.|.|.|.",
"|.3.Z.B.J.K.H._.}.}.}.{.).N l l x X.#.T a.u.+.% & |.|.|.|.|.|.|.",
"|.C.C.S.J.V.| 6.b.{.`.`.~.] v l o.z b x O.b r $ . |.|.|.|.|.|.|.",
"[ T.T.G.G.q.).F.Q.R._.E.I.,.j s a k a f i x r u |.|.|.|.|.|.|.|.",
",.E.E._.G.'.|.|./...E.I.z.g.0 } $.m d y t l d $.|.|.|.|.|.|.|.|.",
"[ ^._.{.`.^.'.|.{.r.C.l.3.>.v.v.a.a.a.w.+.j q.%.|.|.|.|.|.|.|.|.",
"[ `.'.}.}.M.R.!.w.B.Z.4.3.~ |.H ' c.a.a.b.%.b.e |.|.|.|.|.|.|.|.",
"|.`.}.}.}.'.~.n.a.i.e.1.<.W |.|.|.|.D ( s.%.E |.|.|.|.|.|.|.|.|.",
"|.:.}.}.'._.E.I.h.w.=.*.! |.|.|.|.|.|.|.|.R |.|.|.|.|.|.|.|.|.|.",
"|.|.,.'._.E.I.z.f.0.&._ F B |.|.|.|.|.|.|.|.|.|.|.|.|.|.|.|.|.|.",
"|.|.|.Q m.Y.z.g.5.;.L |.|.|.|.|.|.|.|.|.|.|.|.|.|.|.|.|.|.|.|.|.",
"|.|.|.|.|.|.F F |.|.|.|.|.|.|.|.|.|.|.|.|.|.|.|.|.|.|.|.|.|.|.|."
};
