<?xml version="1.0" encoding="UTF-8" standalone="no"?>
<!-- Created with Inkscape (http://www.inkscape.org/) -->
<svg
   xmlns:dc="http://purl.org/dc/elements/1.1/"
   xmlns:cc="http://creativecommons.org/ns#"
   xmlns:rdf="http://www.w3.org/1999/02/22-rdf-syntax-ns#"
   xmlns:svg="http://www.w3.org/2000/svg"
   xmlns="http://www.w3.org/2000/svg"
   xmlns:xlink="http://www.w3.org/1999/xlink"
   xmlns:sodipodi="http://sodipodi.sourceforge.net/DTD/sodipodi-0.dtd"
   xmlns:inkscape="http://www.inkscape.org/namespaces/inkscape"
   width="128"
   height="128"
   id="svg2833"
   sodipodi:version="0.32"
   inkscape:version="0.46+devel"
   version="1.0"
   sodipodi:docname="install-gui.svg"
   inkscape:output_extension="org.inkscape.output.svg.inkscape">
  <defs
     id="defs2835">
    <linearGradient
       id="linearGradient6740">
      <stop
         style="stop-color:#004d00;stop-opacity:0;"
         offset="0"
         id="stop6742" />
      <stop
         id="stop6748"
         offset="0.5"
         style="stop-color:#004d00;stop-opacity:1;" />
      <stop
         style="stop-color:#004d00;stop-opacity:0;"
         offset="1"
         id="stop6744" />
    </linearGradient>
    <linearGradient
       gradientTransform="matrix(0,1,-1,0,-39.9985,140.0029)"
       y2="-383.9975"
       x2="-23.516129"
       y1="-383.9971"
       x1="-84.002403"
       gradientUnits="userSpaceOnUse"
       id="linearGradient3711">
      <stop
         id="stop3713"
         style="stop-color:white;stop-opacity:1;"
         offset="0" />
      <stop
         id="stop3715"
         style="stop-color:white;stop-opacity:0;"
         offset="1" />
    </linearGradient>
    <clipPath
       clipPathUnits="userSpaceOnUse"
       id="clipPath5163">
      <circle
         sodipodi:ry="36"
         sodipodi:rx="36"
         sodipodi:cy="92"
         sodipodi:cx="343.99899"
         style="fill:url(#linearGradient5167);fill-opacity:1"
         r="36"
         rx="8.0010004"
         cx="343.99899"
         cy="92"
         ry="8.0010004"
         id="circle5165" />
    </clipPath>
    <linearGradient
       id="linearGradient4296">
      <stop
         id="stop4298"
         offset="0"
         style="stop-color:#00ff00;stop-opacity:1" />
      <stop
         id="stop4300"
         offset="1"
         style="stop-color:#006500;stop-opacity:1" />
    </linearGradient>
    <linearGradient
       gradientTransform="matrix(0,1,-1,0,-39.9985,140.0029)"
       y2="-383.9971"
       x2="-12.0029"
       y1="-383.9971"
       x1="-84.002403"
       gradientUnits="userSpaceOnUse"
       id="linearGradient4770">
      <stop
         id="stop4772"
         style="stop-color:#e5ff00;stop-opacity:1"
         offset="0" />
      <stop
         id="stop4774"
         style="stop-color:#bff500;stop-opacity:0;"
         offset="1" />
    </linearGradient>
    <linearGradient
       gradientTransform="matrix(0,1,-1,0,-39.9985,140.0029)"
       y2="-383.9971"
       x2="-12.0029"
       y1="-383.9971"
       x1="-84.002403"
       gradientUnits="userSpaceOnUse"
       id="linearGradient5958">
      <stop
         id="stop5960"
         style="stop-color:#008c00;stop-opacity:1"
         offset="0" />
      <stop
         id="stop5962"
         style="stop-color:#00bf00;stop-opacity:1"
         offset="1" />
    </linearGradient>
    <linearGradient
       inkscape:collect="always"
       id="linearGradient7441">
      <stop
         style="stop-color:#808080;stop-opacity:1;"
         offset="0"
         id="stop7443" />
      <stop
         style="stop-color:#808080;stop-opacity:0;"
         offset="1"
         id="stop7445" />
    </linearGradient>
    <linearGradient
       inkscape:collect="always"
       id="linearGradient9274-166-826-779-471-655-331-795">
      <stop
         style="stop-color:#ffffff;stop-opacity:1;"
         offset="0"
         id="stop20631" />
      <stop
         style="stop-color:#ffffff;stop-opacity:0;"
         offset="1"
         id="stop20633" />
    </linearGradient>
    <linearGradient
       inkscape:collect="always"
       id="linearGradient9274-828-181-250-454-259-451-773">
      <stop
         style="stop-color:#ffffff;stop-opacity:1;"
         offset="0"
         id="stop20625" />
      <stop
         style="stop-color:#ffffff;stop-opacity:0;"
         offset="1"
         id="stop20627" />
    </linearGradient>
    <linearGradient
       id="linearGradient2315-800-211-797-571-358-772-92">
      <stop
         id="stop20619"
         offset="0"
         style="stop-color:#ffffff;stop-opacity:1;" />
      <stop
         id="stop20621"
         offset="1"
         style="stop-color:#b1b1b1;stop-opacity:1;" />
    </linearGradient>
    <filter
       inkscape:collect="always"
       id="filter7576">
      <feGaussianBlur
         inkscape:collect="always"
         stdDeviation="1.5079688"
         id="feGaussianBlur7578" />
    </filter>
    <radialGradient
       inkscape:collect="always"
       xlink:href="#linearGradient7441"
       id="radialGradient2463"
       gradientUnits="userSpaceOnUse"
       gradientTransform="matrix(1.8230552,-0.00141001,0.00141169,1.8252221,-39.088081,-46.420354)"
       cx="48.328632"
       cy="55.719162"
       fx="48.328632"
       fy="55.719162"
       r="43.864159" />
    <radialGradient
       inkscape:collect="always"
       xlink:href="#linearGradient9274-828-181-250-454-259-451-773"
       id="radialGradient2478"
       gradientUnits="userSpaceOnUse"
       gradientTransform="matrix(1.4250061,0.101935,-0.02789634,0.6270518,661.99541,33.656942)"
       cx="-419.27335"
       cy="37.536674"
       fx="-419.27335"
       fy="37.536674"
       r="77.78125" />
    <radialGradient
       inkscape:collect="always"
       xlink:href="#linearGradient2315-800-211-797-571-358-772-92"
       id="radialGradient2485"
       gradientUnits="userSpaceOnUse"
       gradientTransform="matrix(0.9031289,9.5506185e-4,-0.00200703,0.7083064,433.51066,-30.668547)"
       cx="-431.58975"
       cy="188.62517"
       fx="-431.58975"
       fy="188.62517"
       r="77.784615" />
    <radialGradient
       inkscape:collect="always"
       xlink:href="#linearGradient9274-166-826-779-471-655-331-795"
       id="radialGradient2493"
       gradientUnits="userSpaceOnUse"
       gradientTransform="matrix(1.4250061,0.101935,-0.02789634,0.6270518,661.99541,33.656942)"
       cx="-419.27335"
       cy="37.536674"
       fx="-419.27335"
       fy="37.536674"
       r="77.78125" />
    <filter
       inkscape:collect="always"
       id="filter5943">
      <feGaussianBlur
         inkscape:collect="always"
         stdDeviation="1.04"
         id="feGaussianBlur5945" />
    </filter>
    <filter
       inkscape:collect="always"
       id="filter7317">
      <feGaussianBlur
         inkscape:collect="always"
         stdDeviation="2.8805897"
         id="feGaussianBlur7319" />
    </filter>
    <filter
       inkscape:collect="always"
       id="filter4292">
      <feGaussianBlur
         inkscape:collect="always"
         stdDeviation="2.1604423"
         id="feGaussianBlur4294" />
    </filter>
    <linearGradient
       inkscape:collect="always"
       xlink:href="#linearGradient5958"
       id="linearGradient7136"
       gradientUnits="userSpaceOnUse"
       gradientTransform="matrix(0,1,-1,0,-39.9985,140.0029)"
       x1="-86.120354"
       y1="-381.09921"
       x2="-56.357521"
       y2="-373.1243" />
    <radialGradient
       inkscape:collect="always"
       xlink:href="#linearGradient4770"
       id="radialGradient7138"
       gradientUnits="userSpaceOnUse"
       cx="343.99899"
       cy="92"
       fx="343.99899"
       fy="92"
       r="36" />
    <linearGradient
       inkscape:collect="always"
       xlink:href="#linearGradient4296"
       id="linearGradient7140"
       gradientUnits="userSpaceOnUse"
       x1="328.12448"
       y1="120.81158"
       x2="336.98077"
       y2="87.759453" />
    <linearGradient
       inkscape:collect="always"
       xlink:href="#linearGradient3711"
       id="linearGradient7142"
       gradientUnits="userSpaceOnUse"
       gradientTransform="matrix(0,0.7388168,-0.7388168,0,-62.713314,210.21986)"
       x1="-80.00296"
       y1="-131.93112"
       x2="-45.096584"
       y2="-131.93112" />
    <linearGradient
       inkscape:collect="always"
       xlink:href="#linearGradient6740"
       id="linearGradient7144"
       gradientUnits="userSpaceOnUse"
       gradientTransform="translate(20.000035,-56.000003)"
       x1="102"
       y1="118"
       x2="102"
       y2="65.932846" />
  </defs>
  <sodipodi:namedview
     id="base"
     pagecolor="#ffffff"
     bordercolor="#666666"
     borderopacity="1.0"
     gridtolerance="10000"
     guidetolerance="10"
     objecttolerance="10"
     inkscape:pageopacity="0.0"
     inkscape:pageshadow="2"
     inkscape:zoom="4.703125"
     inkscape:cx="64.236944"
     inkscape:cy="56.115668"
     inkscape:document-units="px"
     inkscape:current-layer="layer1"
     showgrid="true"
     inkscape:window-width="1292"
     inkscape:window-height="810"
     inkscape:window-x="411"
     inkscape:window-y="78"
     showguides="true"
     inkscape:guide-bbox="true">
    <inkscape:grid
       type="axonomgrid"
       id="grid2843"
       units="px"
       spacingy="4px"
       empspacing="4"
       visible="false"
       enabled="false" />
    <inkscape:grid
       type="xygrid"
       id="grid2845"
       spacingx="0.5px"
       spacingy="0.5px"
       empspacing="8" />
  </sodipodi:namedview>
  <metadata
     id="metadata2838">
    <rdf:RDF>
      <cc:Work
         rdf:about="">
        <dc:format>image/svg+xml</dc:format>
        <dc:type
           rdf:resource="http://purl.org/dc/dcmitype/StillImage" />
        <dc:title />
        <dc:date />
        <dc:creator>
          <cc:Agent>
            <dc:title />
          </cc:Agent>
        </dc:creator>
        <dc:rights>
          <cc:Agent>
            <dc:title />
          </cc:Agent>
        </dc:rights>
        <dc:publisher>
          <cc:Agent>
            <dc:title />
          </cc:Agent>
        </dc:publisher>
        <dc:identifier />
        <dc:source />
        <dc:relation />
        <dc:language />
        <dc:subject>
          <rdf:Bag />
        </dc:subject>
        <dc:coverage />
        <dc:description />
        <dc:contributor>
          <cc:Agent>
            <dc:title />
          </cc:Agent>
        </dc:contributor>
        <cc:license
           rdf:resource="" />
      </cc:Work>
    </rdf:RDF>
  </metadata>
  <g
     inkscape:label="Layer 1"
     inkscape:groupmode="layer"
     id="layer1">
    <path
       id="path7562"
       d="m 44.844375,3.2432516 c -6.52907,9.9e-5 -12.176839,0.408132 -17.0625,1.34375 C 17.472899,6.2568936 9.374107,12.226968 6.063123,21.36825 c -1.78454,4.817561 -2.5,10.422103 -2.5,17 0,9.673333 1.92502,17.845161 6.53125,24.0625 l 0,0.03125 c 5.189709,6.953557 13.607756,10.468794 23.062502,10.46875 l 27.09375,0 c 0.842057,6e-6 1.256924,0.10189 1.4375,0.15625 0.02578,0.140863 0.06249,0.421719 0.0625,1 -2.2e-5,1.99234 -0.430878,2.564649 -0.375,2.5 -0.04073,0.02926 -0.249413,0.09375 -1.125,0.09375 l -50.000002,0 c -1.585052,3.3e-5 -3.86136,0.496623 -5.5625,2.21875 -1.70114,1.722126 -2.15625,4.020363 -2.15625,5.625 l 0,18.81252 c 1e-5,1.60463 0.45509,3.90286 2.15625,5.625 1.70116,1.72215 3.97743,2.21875 5.5625,2.21875 l 59.406252,0 c 5.10373,0 9.969316,-1.33066 13.78125,-4.3125 l 0.0625,-0.0312 0.0625,-0.0625 c 3.19516,-2.64655 5.75839,-5.8787 7.5625,-9.53127 3.025348,-5.84709 4.531154,-12.119912 4.53125,-18.6875 -8.7e-5,-6.798878 -0.501774,-12.554217 -1.75,-17.46875 -1.234781,-4.860748 -3.201666,-9.082682 -6.15625,-12.40625 -2.884174,-3.406194 -6.650865,-5.758514 -11,-7.125 -4.098196,-1.333433 -8.635873,-1.874934 -13.8125,-1.875 l -23.96875,0 c -1.229012,1.3e-5 -1.754493,-0.18048 -1.9375,-0.25 -0.01912,-0.109292 -0.0625,-0.321645 -0.0625,-0.875 -2e-6,-0.400116 0.0011,-0.454647 0,-0.53125 0.242678,-0.08649 0.813792,-0.249983 2,-0.25 l 45.09375,-5e-5 c 1.585157,9.9e-5 3.830097,-0.527856 5.53125,-2.25 1.701153,-1.722143 2.187394,-3.989214 2.1875,-5.59375 l 0,-18.6875 c -9.4e-5,-1.5729652 -0.404771,-3.7200474 -2.03125,-5.5312484 -1.626479,-1.811202 -4.003087,-2.468613 -5.6875,-2.46875 l -39.21875,0 z m 0,3 39.21875,0 c 1.137779,9.2e-5 2.538964,0.429818 3.5,1.5 0.961036,1.070183 1.249933,2.3843754 1.25,3.4999984 l 0,18.6875 c -7.3e-5,1.101526 -0.345378,2.45806 -1.34375,3.46875 -0.998372,1.010691 -2.318099,1.343815 -3.40625,1.34375 l -45.09375,0 c -2.240711,3.2e-5 -3.480959,0.471612 -4.0625,0.96875 -0.58154,0.497136 -0.937507,1.165327 -0.9375,2.84375 -9e-6,1.827992 0.407566,2.560644 1,3.09375 0.592434,0.533105 1.781385,1.031273 4,1.03125 l 23.96875,0 c 4.953021,6.3e-5 9.233053,0.575934 12.9375,1.78125 3.888966,1.221902 7.149994,3.290128 9.65625,6.25 2.541385,2.858766 4.319253,6.599974 5.46875,11.125 1.156138,4.551961 1.687415,10.087543 1.6875,16.71875 -9e-5,6.096654 -1.405512,11.90659 -4.21875,17.34375 -1.611516,3.26262 -3.914356,6.16198 -6.8125,8.56252 l -0.03125,0 -0.03125,0.0312 c -3.206606,2.50838 -7.316518,3.6563 -11.9375,3.6563 l -59.406252,0 c -1.088128,0 -2.439122,-0.3018 -3.4375,-1.3125 -0.99838,-1.0107 -1.3125,-2.39845 -1.3125,-3.5 l 0,-18.81252 c 0,-1.101552 0.31414,-2.489318 1.3125,-3.5 0.998364,-1.010683 2.349381,-1.312482 3.4375,-1.3125 l 50.000002,0 c 1.915001,8e-6 2.782195,-0.470401 3.375,-1.15625 0.592804,-0.685849 1.093725,-2.036226 1.09375,-4.46875 -2.4e-5,-1.865672 -0.383605,-2.683599 -0.90625,-3.1875 -0.522645,-0.503899 -1.552835,-0.968731 -3.5625,-0.96875 l -27.09375,0 C 24.350321,69.930791 17.1055,66.819454 12.500625,60.6495 8.423955,55.146941 6.563113,47.633688 6.563123,38.36825 c 0,-6.341156 0.710815,-11.613554 2.3125,-15.9375 2.956096,-8.161469 9.880378,-13.2905794 19.468752,-14.8437484 4.6302,-0.886695 10.102173,-1.343652 16.5,-1.34375 z"
       style="font-size:182.7288208px;font-style:normal;font-variant:normal;font-weight:bold;font-stretch:normal;opacity:0.56652359;fill:#000000;fill-opacity:1;stroke:none;filter:url(#filter7576);font-family:Sidux;-inkscape-font-specification:Sidux Bold" />
    <path
       style="font-size:182.7288208px;font-style:normal;font-variant:normal;font-weight:bold;font-stretch:normal;fill:none;stroke:#333333;stroke-width:12;stroke-linecap:butt;stroke-linejoin:miter;stroke-miterlimit:4;stroke-opacity:1;font-family:Sidux"
       d="m 8.481967,82.501979 0,18.852101 c -2e-6,1.19695 0.591182,1.79543 1.773553,1.79543 l 59.414036,0 c 4.138225,0 7.507972,-1.01741 10.109254,-3.05224 2.601137,-2.154535 4.611161,-4.668143 6.030082,-7.540849 2.601129,-5.027205 3.901734,-10.35366 3.901816,-15.979381 -8.2e-5,-6.463537 -0.532148,-11.789992 -1.596198,-15.979382 -1.064211,-4.189304 -2.660408,-7.480933 -4.788593,-9.874898 -2.128339,-2.513555 -4.906903,-4.30899 -8.3357,-5.386309 -3.310699,-1.077202 -7.330748,-1.615833 -12.060163,-1.615892 l -23.94297,0 c -5.320686,5.9e-5 -7.981013,-2.393853 -7.980989,-7.181744 -2.4e-5,-4.548367 2.660303,-6.822585 7.980989,-6.822658 l 45.048253,0 c 1.182292,7.3e-5 1.773475,-0.598404 1.773555,-1.795436 l 0,-18.6725344 c -8e-5,-1.3165572 -0.591263,-1.9748831 -1.773555,-1.974979 l -39.195527,0 C 38.573224,7.2733035 33.252569,7.6922381 28.877831,8.5300129 20.010052,9.9664534 14.275569,14.275496 11.674365,21.457151 c -1.418848,3.830342 -2.128269,8.79771 -2.128266,14.90212 -3e-6,8.857543 1.77355,15.680193 5.320662,20.467972 1.773543,2.513654 4.138279,4.488632 7.094212,5.924938 3.074141,1.436389 6.7986,2.154563 11.173386,2.154524 l 27.135365,0 c 4.965891,3.9e-5 7.448863,2.393951 7.448924,7.181744 -6.1e-5,5.745421 -2.483033,8.618116 -7.448924,8.618094 l -50.014204,0 c -1.182371,2.2e-5 -1.773555,0.598501 -1.773553,1.795436"
       id="text5058" />
    <path
       style="font-size:182.7288208px;font-style:normal;font-variant:normal;font-weight:bold;font-stretch:normal;fill:none;stroke:url(#radialGradient2463);stroke-width:6;stroke-linecap:butt;stroke-linejoin:miter;stroke-miterlimit:4;stroke-opacity:1;font-family:Sidux"
       d="m 8.481967,82.501979 0,18.852101 c -2e-6,1.19695 0.591182,1.79543 1.773553,1.79543 l 59.414036,0 c 4.138225,0 7.507972,-1.01741 10.109254,-3.05224 2.601137,-2.154535 4.611161,-4.668143 6.030082,-7.540849 2.601129,-5.027205 3.901734,-10.35366 3.901816,-15.979381 -8.2e-5,-6.463537 -0.532148,-11.789992 -1.596198,-15.979382 -1.064211,-4.189304 -2.660408,-7.480933 -4.788593,-9.874898 -2.128339,-2.513555 -4.906903,-4.30899 -8.3357,-5.386309 -3.310699,-1.077202 -7.330748,-1.615833 -12.060163,-1.615892 l -23.94297,0 c -5.320686,5.9e-5 -7.981013,-2.393853 -7.980989,-7.181744 -2.4e-5,-4.548367 2.660303,-6.822585 7.980989,-6.822658 l 45.048253,0 c 1.182292,7.3e-5 1.773475,-0.598404 1.773555,-1.795436 l 0,-18.6725344 c -8e-5,-1.3165572 -0.591263,-1.9748831 -1.773555,-1.974979 l -39.195527,0 C 38.573224,7.2733035 33.252569,7.6922381 28.877831,8.5300129 20.010052,9.9664534 14.275569,14.275496 11.674365,21.457151 c -1.418848,3.830342 -2.128269,8.79771 -2.128266,14.90212 -3e-6,8.857543 1.77355,15.680193 5.320662,20.467972 1.773543,2.513654 4.138279,4.488632 7.094212,5.924938 3.074141,1.436389 6.7986,2.154563 11.173386,2.154524 l 27.135365,0 c 4.965891,3.9e-5 7.448863,2.393951 7.448924,7.181744 -6.1e-5,5.745421 -2.483033,8.618116 -7.448924,8.618094 l -50.014204,0 c -1.182371,2.2e-5 -1.773555,0.598501 -1.773553,1.795436"
       id="text5054" />
    <path
       style="font-size:182.7288208px;font-style:normal;font-variant:normal;font-weight:bold;font-stretch:normal;fill:#cccccc;fill-opacity:1;stroke:none;font-family:Sidux"
       d="m 8.197489,82.031751 0,18.852099 c -10e-7,1.19696 0.591182,1.79544 1.773553,1.79544 l 59.414037,0 c 4.138224,0 7.507972,-1.01741 10.109253,-3.05226 2.601136,-2.154523 4.611162,-4.668131 6.030081,-7.540836 2.60113,-5.027206 3.901735,-10.353661 3.901818,-15.979383 C 89.426148,69.643275 88.894083,64.31682 87.830033,60.12743 86.765821,55.938126 85.169624,52.646496 83.041439,50.252532 80.913101,47.738976 78.134537,45.943542 74.705738,44.866224 71.395041,43.78902 67.374991,43.250391 62.645577,43.25033 l -23.94297,0 c -5.320686,6.1e-5 -7.981013,-2.393853 -7.980989,-7.181744 -2.4e-5,-4.548366 2.660303,-6.822583 7.980989,-6.822656 l 45.048253,0 c 1.182291,7.3e-5 1.773475,-0.598405 1.773553,-1.795437 l 0,-18.6725339 C 85.524335,7.4614012 84.933151,6.8030752 83.75086,6.8029794 l -39.195527,0 C 38.288746,6.8030752 32.968092,7.22201 28.593354,8.0597846 19.725574,9.4962262 13.991091,13.805267 11.389887,20.986923 c -1.418848,3.830341 -2.128268,8.79771 -2.128266,14.90212 -2e-6,8.857543 1.773551,15.680193 5.320662,20.467972 1.773543,2.513654 4.138279,4.488631 7.094213,5.924939 3.074141,1.436387 6.798599,2.154561 11.173385,2.154523 l 27.135366,0 c 4.965891,3.8e-5 7.448863,2.393951 7.448923,7.181745 -6e-5,5.74542 -2.483032,8.618115 -7.448923,8.618093 l -50.014205,0 c -1.182371,2.2e-5 -1.773554,0.5985 -1.773553,1.795436"
       id="text7214" />
    <path
       style="font-size:182.7288208px;font-style:normal;font-variant:normal;font-weight:bold;font-stretch:normal;fill:#666666;fill-opacity:1;stroke:none;font-family:Sidux;-inkscape-font-specification:Sidux Bold"
       d="m 45.015822,1.7796246 c -6.482438,10e-5 -12.026778,0.456445 -16.718212,1.341942 C 18.58243,4.6726456 11.566574,9.7948504 8.571384,17.945338 6.948517,22.263465 6.228298,27.528765 6.228302,33.86139 6.330801,28.158994 7.071975,23.339324 8.571384,19.349696 11.566574,11.19921 18.58243,6.0770026 28.29761,4.5259236 32.989044,3.6404216 38.533384,3.1840796 45.015822,3.1839816 l 39.737416,0 c 1.152826,9.2e-5 2.572537,0.42924 3.546287,1.497982 0.97375,1.068743 1.26646,2.381168 1.26653,3.49529 l 0,-1.404358 c -7e-5,-1.114122 -0.29278,-2.42655 -1.26653,-3.49529 -0.97375,-1.068729 -2.393461,-1.497891 -3.546287,-1.497981 l -39.737416,0 z M 34.028663,34.76642 c -0.01728,0.216708 -0.03166,0.423353 -0.03166,0.686575 -9e-6,1.825532 0.412956,2.557198 1.013225,3.089586 0.600269,0.532388 1.804944,1.029885 4.0529,1.029863 l 24.285736,0 c 5.018524,6.2e-5 9.35516,0.575158 13.108598,1.778852 3.940397,1.220258 7.244552,3.285701 9.783953,6.241589 2.574993,2.854919 4.376373,6.591092 5.541073,11.110028 1.08602,4.214385 1.63632,9.299306 1.70982,15.291893 -8e-5,-6.622283 -0.53839,-12.150415 -1.70982,-16.69625 -1.1647,-4.518936 -2.96608,-8.25511 -5.541073,-11.110028 -2.539401,-2.955889 -5.843556,-5.021332 -9.783953,-6.241589 -3.753438,-1.203694 -8.090074,-1.778793 -13.108598,-1.778853 l -24.285736,0 c -2.247956,2.3e-5 -3.452631,-0.497478 -4.0529,-1.029862 -0.507037,-0.4497 -0.877808,-1.098597 -0.981562,-2.371804 z m 29.671724,35.421017 c -0.08832,1.991866 -0.536515,3.191555 -1.076552,3.807369 -0.600645,0.684926 -1.479307,1.154702 -3.419634,1.154694 l -49.239632,0 c -1.10251,1.8e-5 -2.471394,0.301411 -3.482961,1.310734 -1.011567,1.009322 -1.329859,2.39522 -1.329858,3.495289 l 0,1.404358 c -1e-6,-1.10007 0.318291,-2.485968 1.329858,-3.49529 1.011567,-1.009323 2.380451,-1.310716 3.482961,-1.310734 l 49.239632,0 c 1.940327,8e-6 2.818989,-0.469767 3.419634,-1.154693 0.600644,-0.684926 1.108189,-2.033486 1.108215,-4.462736 -4e-6,-0.286499 -0.01418,-0.50931 -0.03166,-0.748991 z"
       id="path7257"
       sodipodi:nodetypes="ccccccccsccscccssccccscsccccsccsccsccsccssc" />
    <path
       sodipodi:nodetypes="cscccccccscccsccccccccccccccccccsccsccccccsc"
       style="font-size:182.7288208px;font-style:normal;font-variant:normal;font-weight:bold;font-stretch:normal;fill:#000000;fill-opacity:1;stroke:none;font-family:Sidux;-inkscape-font-specification:Sidux Bold"
       d="m 91.313415,25.74325 c -1.1e-4,1.604536 -0.4809,3.871604 -2.163,5.59375 -1.68209,1.722144 -3.901887,2.250096 -5.469291,2.25 l -44.588644,0 c -1.172923,1.7e-5 -1.737636,0.163507 -1.977598,0.25 10e-4,0.0766 -1.551757,0.8125 -1.551757,1.8125 1,-0.5 1.594652,-0.515545 1.613557,-0.40625 0.257642,-0.08875 0.795736,-0.249984 1.915798,-0.25 l 44.588644,0 c 1.567404,9.9e-5 3.787201,-0.527856 5.469291,-2.25 1.6821,-1.722143 2.16289,-3.989214 2.163,-5.59375 l 0,-1.40625 z M 4.082822,34.6495 c -0.0034,0.315704 0,0.617202 0,0.9375 0,9.673333 1.903457,17.845161 6.458093,24.0625 l 0,0.03125 c 5.131579,6.953557 13.455327,10.468794 22.804172,10.46875 l 26.790267,0 c 0.832628,6e-6 1.427771,0 2.427771,0.5 0,-1 -0.5,-1.5 -1.006373,-1.75 -0.178557,-0.05436 -0.58877,-0.156244 -1.421398,-0.15625 l -26.790267,0 C 23.996242,68.743294 15.672494,65.228057 10.540915,58.2745 l 0,-0.03125 C 6.061804,52.129002 4.145096,44.113344 4.082822,34.6495 z M 95.145005,74.837 c -0.06991,6.395921 -1.56089,12.51212 -4.48049,18.21875 -1.7839,3.65255 -4.31842,6.884715 -7.47779,9.53127 l -0.0618,0.0625 -0.0618,0.0312 c -3.769232,2.98184 -8.580321,4.3125 -13.626883,4.3125 l -58.740828,0 c -1.567316,0 -3.818089,-0.4966 -5.500194,-2.21875 -1.682105,-1.72214 -2.132087,-4.02037 -2.132097,-5.62502 l 0,1.40627 c 1e-5,1.60463 0.449992,3.90286 2.132097,5.625 1.682105,1.72215 3.932878,2.21875 5.500194,2.21875 l 58.740828,0 c 5.046562,0 9.857651,-1.33066 13.626883,-4.3125 l 0.0618,-0.0312 0.0618,-0.0625 c 3.15937,-2.64655 5.69389,-5.87872 7.47779,-9.53127 2.99146,-5.84709 4.4804,-12.119912 4.48049,-18.6875 0,-0.318648 0.0022,-0.623416 0,-0.9375 z"
       id="path7264" />
    <path
       style="fill:url(#radialGradient2485);fill-opacity:1;stroke:none"
       d="m 44.563125,6.8057516 c -6.266585,9.55e-5 -11.594012,0.4122251 -15.96875,1.25 C 19.726594,9.4921932 13.976828,13.811594 11.375625,20.99325 9.956776,24.823591 9.250621,29.795091 9.250623,35.8995 c -2e-6,8.857542 1.796641,15.680971 5.343752,20.46875 1.773544,2.513654 4.137815,4.469943 7.09375,5.90625 3.074141,1.436388 6.781464,2.156289 11.15625,2.15625 l 27.15625,0 c 4.96589,3.6e-5 7.437439,2.399707 7.4375,7.1875 -6.3e-5,5.745423 -2.471609,8.625022 -7.4375,8.625 l -50.031252,0 c -1.182372,2.2e-5 -1.781251,0.584315 -1.78125,1.78125 l 0,18.84377 c -10e-7,1.19696 0.598879,1.8125 1.78125,1.8125 l 59.406252,0 c 4.138225,0 7.523715,-1.02767 10.125,-3.06251 2.601127,-2.154525 4.612332,-4.658554 6.03125,-7.53126 2.601133,-5.027204 3.906165,-10.34303 3.90625,-15.96875 -8.1e-5,-6.463539 -0.529695,-11.810612 -1.59375,-16 -1.06421,-4.189307 -2.684312,-7.481036 -4.8125,-9.875 -2.128338,-2.513556 -4.883704,-4.297681 -8.3125,-5.375 -3.3107,-1.077204 -7.333086,-1.624941 -12.0625,-1.625 l -23.96875,0 c -5.320685,6e-5 -7.968774,-2.399609 -7.96875,-7.1875 -2.4e-5,-4.548367 2.648064,-6.812426 7.96875,-6.8125 l 45.0625,0 c 1.182285,7.5e-5 1.781178,-0.584221 1.78125,-1.78125 l 0,-18.6874984 c -7.7e-5,-1.3165588 -0.598966,-1.9686526 -1.78125,-1.96875 l -39.1875,0 z"
       id="rect5006" />
    <path
       style="opacity:0.46551723;fill:url(#radialGradient2478);fill-opacity:1;fill-rule:evenodd;stroke:none"
       d="m 44.563125,6.8057516 c -6.266585,9.55e-5 -11.594012,0.4122251 -15.96875,1.25 C 19.726594,9.4921932 13.976828,13.811594 11.375625,20.99325 9.956776,24.823591 9.250621,29.795091 9.250623,35.8995 c -10e-7,3.510136 0.28232,6.69135 0.84375,9.5625 5.102383,0.132736 10.137222,0.517831 15.093752,1.09375 1.07268,0.40353 3.317949,-2.296824 6.46875,-6.4375 -0.619731,-1.07803 -0.937508,-2.425975 -0.9375,-4.0625 -2.4e-5,-4.548367 2.648064,-6.812426 7.96875,-6.8125 l 1.25,0 c 6.402246,-8.189688 14.362526,-17.273651 23.0625,-22.4374984 l -18.4375,0 z M 85.531875,20.8995 c -2.444379,0.569886 -4.870859,1.196364 -7.28125,1.96875 -3.45951,1.108566 -6.723983,3.37439 -9.84375,6.375 l 15.34375,0 c 1.182285,7.5e-5 1.781178,-0.584221 1.78125,-1.78125 l 0,-6.5625 z m -28.15625,22.34375 c -1.699235,2.598663 -3.364799,5.290822 -5.03125,8.0625 11.795426,2.585761 23.444852,5.584883 35.28125,8.03125 -1.06255,-3.8155 -2.601083,-6.852232 -4.59375,-9.09375 -2.128338,-2.513556 -4.883704,-4.297681 -8.3125,-5.375 -3.3107,-1.077204 -7.333086,-1.624941 -12.0625,-1.625 l -5.28125,0 z"
       id="path5008" />
    <path
       style="opacity:0.16810345;fill:url(#radialGradient2493);fill-opacity:1;fill-rule:evenodd;stroke:none"
       d="m 44.563125,6.8057516 c -6.26659,9.55e-5 -11.59401,0.4122251 -15.96875,1.25 C 19.726594,9.4921932 13.976828,13.811594 11.375625,20.99325 9.956776,24.823591 9.250621,29.795091 9.250623,35.8995 c 0,0.849112 0.02952,1.657025 0.0625,2.46875 C 23.425775,29.226177 43.885425,14.11174 60.656875,6.8057516 l -16.09375,0 z M 85.531875,20.8995 c -2.44438,0.569886 -4.87086,1.196364 -7.28125,1.96875 -2.33814,0.749234 -3.54796,3.158479 -3.84375,6.375 l 9.34375,0 c 1.18228,7.5e-5 1.78118,-0.584221 1.78125,-1.78125 l 0,-6.5625 z m -7.25,25.46875 c 2.28387,4.846034 5.40365,9.23486 8.96875,11.75 -1.04042,-3.246169 -2.44352,-5.87807 -4.21875,-7.875 -1.33021,-1.570973 -2.91859,-2.868372 -4.75,-3.875 z"
       id="path5024" />
    <g
       style="opacity:1"
       id="g7090"
       transform="matrix(1.0221212,0,0,1.0221212,-102.75396,8.681286)">
      <g
         transform="translate(155.93921,-98.849048)"
         id="g5807">
        <circle
           transform="matrix(-0.858425,0.2300143,-0.2300143,-0.858425,350.93869,181.44916)"
           id="circle4274"
           ry="8.0010004"
           cy="92"
           cx="343.99899"
           rx="8.0010004"
           r="36"
           style="opacity:0.5;fill:#000000;fill-opacity:1;filter:url(#filter4292)"
           sodipodi:cx="343.99899"
           sodipodi:cy="92"
           sodipodi:rx="36"
           sodipodi:ry="36"
           d="m 379.99899,92 c 0,19.872 -16.128,36 -36,36 -19.872,0 -36,-16.128 -36,-36 0,-19.872 16.128,-36 36,-36 19.872,0 36,16.128 36,36 z" />
        <circle
           sodipodi:ry="36"
           sodipodi:rx="36"
           sodipodi:cy="92"
           sodipodi:cx="343.99899"
           style="fill:url(#linearGradient7136);fill-opacity:1"
           r="36"
           rx="8.0010004"
           cx="343.99899"
           cy="92"
           ry="8.0010004"
           id="circle3581_2_"
           transform="matrix(-0.858425,0.2300143,-0.2300143,-0.858425,351.26799,178.81461)"
           d="m 379.99899,92 c 0,19.872 -16.128,36 -36,36 -19.872,0 -36,-16.128 -36,-36 0,-19.872 16.128,-36 36,-36 19.872,0 36,16.128 36,36 z" />
        <circle
           transform="matrix(-0.6438188,0.1725107,-0.1725107,-0.6438188,272.15336,178.85201)"
           id="circle4383"
           ry="8.0010004"
           cy="92"
           cx="343.99899"
           rx="8.0010004"
           r="36"
           style="fill:url(#radialGradient7138);fill-opacity:1"
           sodipodi:cx="343.99899"
           sodipodi:cy="92"
           sodipodi:rx="36"
           sodipodi:ry="36"
           d="m 379.99899,92 c 0,19.872 -16.128,36 -36,36 -19.872,0 -36,-16.128 -36,-36 0,-19.872 16.128,-36 36,-36 19.872,0 36,16.128 36,36 z" />
        <circle
           clip-path="url(#clipPath5163)"
           transform="matrix(-0.858425,-0.2300143,-0.2300143,0.858425,351.26799,179.11375)"
           id="circle4776"
           ry="8.0010004"
           cy="92"
           cx="343.99899"
           rx="8.0010004"
           r="36"
           style="opacity:0.8;fill:none;stroke:url(#linearGradient7140);stroke-width:6.75138187;stroke-miterlimit:4;stroke-opacity:1;stroke-dasharray:none;filter:url(#filter7317)"
           sodipodi:cx="343.99899"
           sodipodi:cy="92"
           sodipodi:rx="36"
           sodipodi:ry="36"
           d="m 379.99899,92 c 0,19.872 -16.128,36 -36,36 -19.872,0 -36,-16.128 -36,-36 0,-19.872 16.128,-36 36,-36 19.872,0 36,16.128 36,36 z" />
        <path
           style="opacity:0.8;fill:url(#linearGradient7142);fill-opacity:1"
           d="m 34.809378,151.11237 c -11.345716,0 -20.826095,8.01161 -23.111114,18.67822 4.554661,4.24589 13.196893,7.11111 23.111114,7.11111 9.914233,0 18.556453,-2.86522 23.111113,-7.11111 -2.28501,-10.66661 -11.7654,-18.67822 -23.111113,-18.67822 z"
           id="circle16776" />
        <g
           id="g6850"
           transform="translate(-87.19068,142.96419)">
          <path
             sodipodi:nodetypes="ccccccccccccc"
             style="fill:none;stroke:url(#linearGradient7144);stroke-width:4;stroke-linecap:round;stroke-linejoin:round;stroke-miterlimit:4;stroke-opacity:1;filter:url(#filter5943)"
             d="m 118.00003,15.999997 0,16 -16,0 0,8 16,0 0,16 8,0 0,-16 16,0 0,-8 -16,0 0,-16 -8,0 z"
             id="path4123" />
          <path
             sodipodi:nodetypes="ccccccccccccc"
             id="rect3232"
             d="m 118.00003,15.999997 0,16 -16,0 0,8 16,0 0,16 8,0 0,-16 16,0 0,-8 -16,0 0,-16 -8,0 z"
             style="fill:#ffffff;fill-opacity:1;fill-rule:evenodd;stroke:none" />
        </g>
      </g>
    </g>
  </g>
</svg>
