<?xml version="1.0" encoding="UTF-8" standalone="no"?>
<!-- Created with Inkscape (http://www.inkscape.org/) -->
<svg
   xmlns:dc="http://purl.org/dc/elements/1.1/"
   xmlns:cc="http://creativecommons.org/ns#"
   xmlns:rdf="http://www.w3.org/1999/02/22-rdf-syntax-ns#"
   xmlns:svg="http://www.w3.org/2000/svg"
   xmlns="http://www.w3.org/2000/svg"
   xmlns:xlink="http://www.w3.org/1999/xlink"
   xmlns:sodipodi="http://sodipodi.sourceforge.net/DTD/sodipodi-0.dtd"
   xmlns:inkscape="http://www.inkscape.org/namespaces/inkscape"
   width="128"
   height="128"
   id="svg2833"
   sodipodi:version="0.32"
   inkscape:version="0.45+devel"
   version="1.0"
   sodipodi:docname="install-gui.svg"
   inkscape:output_extension="org.inkscape.output.svg.inkscape">
  <defs
     id="defs2835">
    <linearGradient
       id="linearGradient6740">
      <stop
         style="stop-color:#004d00;stop-opacity:0;"
         offset="0"
         id="stop6742" />
      <stop
         id="stop6748"
         offset="0.5"
         style="stop-color:#004d00;stop-opacity:1;" />
      <stop
         style="stop-color:#004d00;stop-opacity:0;"
         offset="1"
         id="stop6744" />
    </linearGradient>
    <linearGradient
       gradientTransform="matrix(0,1,-1,0,-39.9985,140.0029)"
       y2="-383.9975"
       x2="-23.516129"
       y1="-383.9971"
       x1="-84.002403"
       gradientUnits="userSpaceOnUse"
       id="linearGradient3711">
      <stop
         id="stop3713"
         style="stop-color:white;stop-opacity:1;"
         offset="0" />
      <stop
         id="stop3715"
         style="stop-color:white;stop-opacity:0;"
         offset="1" />
    </linearGradient>
    <clipPath
       clipPathUnits="userSpaceOnUse"
       id="clipPath5163">
      <circle
         sodipodi:ry="36"
         sodipodi:rx="36"
         sodipodi:cy="92"
         sodipodi:cx="343.99899"
         style="fill:url(#linearGradient5167);fill-opacity:1"
         r="36"
         rx="8.0010004"
         cx="343.99899"
         cy="92"
         ry="8.0010004"
         id="circle5165" />
    </clipPath>
    <linearGradient
       id="linearGradient4296">
      <stop
         id="stop4298"
         offset="0"
         style="stop-color:#00ff00;stop-opacity:1" />
      <stop
         id="stop4300"
         offset="1"
         style="stop-color:#006500;stop-opacity:1" />
    </linearGradient>
    <linearGradient
       gradientTransform="matrix(0,1,-1,0,-39.9985,140.0029)"
       y2="-383.9971"
       x2="-12.0029"
       y1="-383.9971"
       x1="-84.002403"
       gradientUnits="userSpaceOnUse"
       id="linearGradient4770">
      <stop
         id="stop4772"
         style="stop-color:#e5ff00;stop-opacity:1"
         offset="0" />
      <stop
         id="stop4774"
         style="stop-color:#bff500;stop-opacity:0;"
         offset="1" />
    </linearGradient>
    <linearGradient
       gradientTransform="matrix(0,1,-1,0,-39.9985,140.0029)"
       y2="-383.9971"
       x2="-12.0029"
       y1="-383.9971"
       x1="-84.002403"
       gradientUnits="userSpaceOnUse"
       id="linearGradient5958">
      <stop
         id="stop5960"
         style="stop-color:#008c00;stop-opacity:1"
         offset="0" />
      <stop
         id="stop5962"
         style="stop-color:#00bf00;stop-opacity:1"
         offset="1" />
    </linearGradient>
    <linearGradient
       inkscape:collect="always"
       id="linearGradient7441">
      <stop
         style="stop-color:#808080;stop-opacity:1;"
         offset="0"
         id="stop7443" />
      <stop
         style="stop-color:#808080;stop-opacity:0;"
         offset="1"
         id="stop7445" />
    </linearGradient>
    <linearGradient
       inkscape:collect="always"
       id="linearGradient9274-166-826-779-471-655-331-795">
      <stop
         style="stop-color:#ffffff;stop-opacity:1;"
         offset="0"
         id="stop20631" />
      <stop
         style="stop-color:#ffffff;stop-opacity:0;"
         offset="1"
         id="stop20633" />
    </linearGradient>
    <linearGradient
       inkscape:collect="always"
       id="linearGradient9274-828-181-250-454-259-451-773">
      <stop
         style="stop-color:#ffffff;stop-opacity:1;"
         offset="0"
         id="stop20625" />
      <stop
         style="stop-color:#ffffff;stop-opacity:0;"
         offset="1"
         id="stop20627" />
    </linearGradient>
    <linearGradient
       id="linearGradient2315-800-211-797-571-358-772-92">
      <stop
         id="stop20619"
         offset="0"
         style="stop-color:#ffffff;stop-opacity:1;" />
      <stop
         id="stop20621"
         offset="1"
         style="stop-color:#b1b1b1;stop-opacity:1;" />
    </linearGradient>
    <radialGradient
       inkscape:collect="always"
       xlink:href="#linearGradient7441"
       id="radialGradient7449"
       cx="48.328632"
       cy="55.719162"
       fx="48.328632"
       fy="55.719162"
       r="43.864159"
       gradientTransform="matrix(1.8342675,-1.401395e-3,1.4203725e-3,1.8140651,-40.398148,-45.291299)"
       gradientUnits="userSpaceOnUse" />
    <filter
       inkscape:collect="always"
       id="filter7576">
      <feGaussianBlur
         inkscape:collect="always"
         stdDeviation="1.5079688"
         id="feGaussianBlur7578" />
    </filter>
    <radialGradient
       inkscape:collect="always"
       xlink:href="#linearGradient7441"
       id="radialGradient2463"
       gradientUnits="userSpaceOnUse"
       gradientTransform="matrix(1.8230552,-1.410014e-3,1.4116902e-3,1.8252221,-40.151206,-45.569854)"
       cx="48.328632"
       cy="55.719162"
       fx="48.328632"
       fy="55.719162"
       r="43.864159" />
    <radialGradient
       inkscape:collect="always"
       xlink:href="#linearGradient9274-828-181-250-454-259-451-773"
       id="radialGradient2478"
       gradientUnits="userSpaceOnUse"
       gradientTransform="matrix(1.4250061,0.101935,-2.7896339e-2,0.6270518,660.93231,34.507442)"
       cx="-419.27335"
       cy="37.536674"
       fx="-419.27335"
       fy="37.536674"
       r="77.78125" />
    <radialGradient
       inkscape:collect="always"
       xlink:href="#linearGradient2315-800-211-797-571-358-772-92"
       id="radialGradient2485"
       gradientUnits="userSpaceOnUse"
       gradientTransform="matrix(0.9031289,9.5506185e-4,-2.0070307e-3,0.7083064,432.44756,-29.818047)"
       cx="-431.58975"
       cy="188.62517"
       fx="-431.58975"
       fy="188.62517"
       r="77.784615" />
    <radialGradient
       inkscape:collect="always"
       xlink:href="#linearGradient9274-166-826-779-471-655-331-795"
       id="radialGradient2493"
       gradientUnits="userSpaceOnUse"
       gradientTransform="matrix(1.4250061,0.101935,-2.7896339e-2,0.6270518,660.93231,34.507442)"
       cx="-419.27335"
       cy="37.536674"
       fx="-419.27335"
       fy="37.536674"
       r="77.78125" />
    <linearGradient
       y2="87.759453"
       x2="336.98077"
       y1="120.81158"
       x1="328.12448"
       gradientUnits="userSpaceOnUse"
       id="linearGradient5852"
       xlink:href="#linearGradient4296"
       inkscape:collect="always" />
    <filter
       inkscape:collect="always"
       id="filter5943">
      <feGaussianBlur
         inkscape:collect="always"
         stdDeviation="1.04"
         id="feGaussianBlur5945" />
    </filter>
    <filter
       inkscape:collect="always"
       id="filter7317">
      <feGaussianBlur
         inkscape:collect="always"
         stdDeviation="2.8805897"
         id="feGaussianBlur7319" />
    </filter>
    <filter
       inkscape:collect="always"
       id="filter4292">
      <feGaussianBlur
         inkscape:collect="always"
         stdDeviation="2.1604423"
         id="feGaussianBlur4294" />
    </filter>
    <radialGradient
       inkscape:collect="always"
       xlink:href="#linearGradient7441"
       id="radialGradient7033"
       gradientUnits="userSpaceOnUse"
       gradientTransform="matrix(1.8342675,-1.401395e-3,1.4203725e-3,1.8140651,-40.398148,-45.291299)"
       cx="48.328632"
       cy="55.719162"
       fx="48.328632"
       fy="55.719162"
       r="43.864159" />
    <linearGradient
       inkscape:collect="always"
       xlink:href="#linearGradient4296"
       id="linearGradient7045"
       gradientUnits="userSpaceOnUse"
       x1="328.12448"
       y1="120.81158"
       x2="336.98077"
       y2="87.759453" />
    <radialGradient
       inkscape:collect="always"
       xlink:href="#linearGradient7441"
       id="radialGradient7070"
       gradientUnits="userSpaceOnUse"
       gradientTransform="matrix(1.8342675,-1.401395e-3,1.4203725e-3,1.8140651,58.143416,-56.07403)"
       cx="48.328632"
       cy="55.719162"
       fx="48.328632"
       fy="55.719162"
       r="43.864159" />
    <radialGradient
       inkscape:collect="always"
       xlink:href="#linearGradient7441"
       id="radialGradient7127"
       gradientUnits="userSpaceOnUse"
       gradientTransform="matrix(1.8342675,-1.401395e-3,1.4203725e-3,1.8140651,58.143416,-56.07403)"
       cx="48.328632"
       cy="55.719162"
       fx="48.328632"
       fy="55.719162"
       r="43.864159" />
    <linearGradient
       inkscape:collect="always"
       xlink:href="#linearGradient5958"
       id="linearGradient7136"
       gradientUnits="userSpaceOnUse"
       gradientTransform="matrix(0,1,-1,0,-39.9985,140.0029)"
       x1="-86.120354"
       y1="-381.09921"
       x2="-56.357521"
       y2="-373.1243" />
    <radialGradient
       inkscape:collect="always"
       xlink:href="#linearGradient4770"
       id="radialGradient7138"
       gradientUnits="userSpaceOnUse"
       cx="343.99899"
       cy="92"
       fx="343.99899"
       fy="92"
       r="36" />
    <linearGradient
       inkscape:collect="always"
       xlink:href="#linearGradient4296"
       id="linearGradient7140"
       gradientUnits="userSpaceOnUse"
       x1="328.12448"
       y1="120.81158"
       x2="336.98077"
       y2="87.759453" />
    <linearGradient
       inkscape:collect="always"
       xlink:href="#linearGradient3711"
       id="linearGradient7142"
       gradientUnits="userSpaceOnUse"
       gradientTransform="matrix(0,0.7388168,-0.7388168,0,-62.713314,210.21986)"
       x1="-80.00296"
       y1="-131.93112"
       x2="-45.096584"
       y2="-131.93112" />
    <linearGradient
       inkscape:collect="always"
       xlink:href="#linearGradient6740"
       id="linearGradient7144"
       gradientUnits="userSpaceOnUse"
       gradientTransform="translate(20.000035,-56.000003)"
       x1="102"
       y1="118"
       x2="102"
       y2="65.932846" />
    <radialGradient
       inkscape:collect="always"
       xlink:href="#linearGradient7441"
       id="radialGradient7751"
       gradientUnits="userSpaceOnUse"
       gradientTransform="matrix(1.8342675,-1.401395e-3,1.4203725e-3,1.8140651,58.143416,-56.07403)"
       cx="48.328632"
       cy="55.719162"
       fx="48.328632"
       fy="55.719162"
       r="43.864159" />
  </defs>
  <sodipodi:namedview
     id="base"
     pagecolor="#ffffff"
     bordercolor="#666666"
     borderopacity="1.0"
     gridtolerance="10000"
     guidetolerance="10"
     objecttolerance="10"
     inkscape:pageopacity="0.0"
     inkscape:pageshadow="2"
     inkscape:zoom="4.1875"
     inkscape:cx="-12.841598"
     inkscape:cy="77.148264"
     inkscape:document-units="px"
     inkscape:current-layer="layer1"
     showgrid="true"
     inkscape:window-width="981"
     inkscape:window-height="810"
     inkscape:window-x="411"
     inkscape:window-y="78"
     showguides="true"
     inkscape:guide-bbox="true">
    <inkscape:grid
       type="axonomgrid"
       id="grid2843"
       units="px"
       spacingy="4px"
       empspacing="4"
       visible="false"
       enabled="false" />
    <inkscape:grid
       type="xygrid"
       id="grid2845"
       spacingx="0.5px"
       spacingy="0.5px"
       empspacing="8" />
  </sodipodi:namedview>
  <metadata
     id="metadata2838">
    <rdf:RDF>
      <cc:Work
         rdf:about="">
        <dc:format>image/svg+xml</dc:format>
        <dc:type
           rdf:resource="http://purl.org/dc/dcmitype/StillImage" />
        <dc:title></dc:title>
        <dc:date></dc:date>
        <dc:creator>
          <cc:Agent>
            <dc:title></dc:title>
          </cc:Agent>
        </dc:creator>
        <dc:rights>
          <cc:Agent>
            <dc:title></dc:title>
          </cc:Agent>
        </dc:rights>
        <dc:publisher>
          <cc:Agent>
            <dc:title></dc:title>
          </cc:Agent>
        </dc:publisher>
        <dc:identifier></dc:identifier>
        <dc:source></dc:source>
        <dc:relation></dc:relation>
        <dc:language></dc:language>
        <dc:subject>
          <rdf:Bag />
        </dc:subject>
        <dc:coverage></dc:coverage>
        <dc:description></dc:description>
        <dc:contributor>
          <cc:Agent>
            <dc:title></dc:title>
          </cc:Agent>
        </dc:contributor>
        <cc:license
           rdf:resource="" />
      </cc:Work>
    </rdf:RDF>
  </metadata>
  <g
     inkscape:label="Layer 1"
     inkscape:groupmode="layer"
     id="layer1">
    <path
       id="path7562"
       d="M 43.78125,4.09375 C 37.25218,4.093849 31.604411,4.501882 26.71875,5.4375 C 16.409774,7.107392 8.310984,13.077468 5,22.21875 C 3.21546,27.036311 2.5,32.640853 2.5,39.21875 C 2.5,48.892083 4.42502,57.063911 9.03125,63.28125 L 9.03125,63.3125 C 14.220957,70.266057 22.639004,73.781294 32.09375,73.78125 L 59.1875,73.78125 C 60.029557,73.781256 60.444424,73.88314 60.625,73.9375 C 60.650779,74.078363 60.687493,74.359219 60.6875,74.9375 C 60.687478,76.92984 60.256622,77.502149 60.3125,77.4375 C 60.271767,77.466764 60.063087,77.531254 59.1875,77.53125 L 9.1875,77.53125 C 7.602448,77.531283 5.32614,78.027873 3.625,79.75 C 1.92386,81.472126 1.46875,83.770363 1.46875,85.375 L 1.46875,104.1875 C 1.46876,105.79213 1.92384,108.09036 3.625,109.8125 C 5.32616,111.53465 7.60243,112.03125 9.1875,112.03125 L 68.59375,112.03125 C 73.69748,112.03125 78.563066,110.70059 82.375,107.71875 L 82.4375,107.6875 L 82.5,107.625 C 85.69516,104.97845 88.25839,101.7463 90.0625,98.09375 C 93.087848,92.24666 94.593654,85.973838 94.59375,79.40625 C 94.593663,72.607372 94.091976,66.852033 92.84375,61.9375 C 91.608969,57.076752 89.642084,52.854818 86.6875,49.53125 C 83.803326,46.125056 80.036635,43.772736 75.6875,42.40625 C 71.589304,41.072817 67.051627,40.531316 61.875,40.53125 L 37.90625,40.53125 C 36.677238,40.531263 36.151757,40.35077 35.96875,40.28125 C 35.949626,40.171958 35.906247,39.959605 35.90625,39.40625 C 35.906248,39.006134 35.907304,38.951603 35.90625,38.875 C 36.148928,38.78851 36.720042,38.625017 37.90625,38.625 L 83,38.625 C 84.585157,38.625099 86.830097,38.097144 88.53125,36.375 C 90.232403,34.652857 90.718644,32.385786 90.71875,30.78125 L 90.71875,12.09375 C 90.718656,10.520784 90.313979,8.373701 88.6875,6.5625 C 87.061021,4.751298 84.684413,4.093887 83,4.09375 L 43.78125,4.09375 z M 43.78125,7.09375 L 83,7.09375 C 84.137779,7.093842 85.538964,7.523568 86.5,8.59375 C 87.461036,9.663933 87.749933,10.978127 87.75,12.09375 L 87.75,30.78125 C 87.749927,31.882776 87.404622,33.23931 86.40625,34.25 C 85.407878,35.260691 84.088151,35.593815 83,35.59375 L 37.90625,35.59375 C 35.665539,35.593782 34.425291,36.065362 33.84375,36.5625 C 33.26221,37.059636 32.906243,37.727827 32.90625,39.40625 C 32.906241,41.234242 33.313816,41.966894 33.90625,42.5 C 34.498684,43.033105 35.687635,43.531273 37.90625,43.53125 L 61.875,43.53125 C 66.828021,43.531313 71.108053,44.107184 74.8125,45.3125 C 78.701466,46.534402 81.962494,48.602628 84.46875,51.5625 C 87.010135,54.421266 88.788003,58.162474 89.9375,62.6875 C 91.093638,67.239461 91.624915,72.775043 91.625,79.40625 C 91.62491,85.502904 90.219488,91.31284 87.40625,96.75 C 85.794734,100.01262 83.491894,102.91196 80.59375,105.3125 L 80.5625,105.3125 L 80.53125,105.34375 C 77.324644,107.85208 73.214732,109 68.59375,109 L 9.1875,109 C 8.099372,109 6.748378,108.6982 5.75,107.6875 C 4.75162,106.6768 4.4375,105.28905 4.4375,104.1875 L 4.4375,85.375 C 4.4375,84.273448 4.75164,82.885682 5.75,81.875 C 6.748364,80.864317 8.099381,80.562518 9.1875,80.5625 L 59.1875,80.5625 C 61.102501,80.562508 61.969695,80.092099 62.5625,79.40625 C 63.155304,78.720401 63.656225,77.370024 63.65625,74.9375 C 63.656226,73.071828 63.272645,72.253901 62.75,71.75 C 62.227355,71.246101 61.197165,70.781269 59.1875,70.78125 L 32.09375,70.78125 C 23.287196,70.781291 16.042375,67.669954 11.4375,61.5 C 7.360832,55.997441 5.49999,48.484188 5.5,39.21875 C 5.5,32.877594 6.210815,27.605196 7.8125,23.28125 C 10.768594,15.119781 17.692876,9.990669 27.28125,8.4375 C 31.91145,7.550805 37.383423,7.093848 43.78125,7.09375 z"
       style="font-size:182.7288208px;font-style:normal;font-variant:normal;font-weight:bold;font-stretch:normal;opacity:0.56652359;fill:#000000;fill-opacity:1;stroke:none;stroke-width:12;stroke-linecap:butt;stroke-linejoin:miter;stroke-miterlimit:4;stroke-dasharray:none;stroke-opacity:1;filter:url(#filter7576);font-family:Sidux;-inkscape-font-specification:Sidux Bold" />
    <path
       style="font-size:182.7288208px;font-style:normal;font-variant:normal;font-weight:bold;font-stretch:normal;fill:none;fill-opacity:1;stroke:#333333;stroke-width:12;stroke-linecap:butt;stroke-linejoin:miter;stroke-miterlimit:4;stroke-opacity:1;font-family:Sidux"
       d="M 7.4188437,83.352479 L 7.4188437,102.20456 C 7.4188423,103.40151 8.0100262,103.99999 9.192397,103.99999 L 68.606431,103.99999 C 72.744656,103.99999 76.114403,102.98258 78.715685,100.94775 C 81.316822,98.793235 83.326846,96.279627 84.745767,93.406921 C 87.346896,88.379716 88.647501,83.053261 88.647583,77.42754 C 88.647501,70.964003 88.115435,65.637548 87.051385,61.448158 C 85.987174,57.258854 84.390977,53.967225 82.262792,51.57326 C 80.134453,49.059705 77.355889,47.26427 73.927092,46.186951 C 70.616393,45.109749 66.596344,44.571118 61.866929,44.571059 L 37.923959,44.571059 C 32.603273,44.571118 29.942946,42.177206 29.94297,37.389315 C 29.942946,32.840948 32.603273,30.56673 37.923959,30.566657 L 82.972212,30.566657 C 84.154504,30.56673 84.745687,29.968253 84.745767,28.771221 L 84.745767,10.098685 C 84.745687,8.7821278 84.154504,8.1238019 82.972212,8.123706 L 43.776685,8.123706 C 37.510099,8.1238019 32.189444,8.5427365 27.814706,9.3805113 C 18.946927,10.816953 13.212444,15.125996 10.61124,22.307651 C 9.1923938,26.137993 8.4829732,31.105361 8.4829757,37.209771 C 8.4829732,46.067314 10.256524,52.889964 13.803636,57.677743 C 15.577179,60.191397 17.941915,62.166375 20.897848,63.602681 C 23.971989,65.03907 27.696448,65.757244 32.071234,65.757205 L 59.206599,65.757205 C 64.17249,65.757244 66.655462,68.151156 66.655523,72.938949 C 66.655462,78.68437 64.17249,81.557065 59.206599,81.557043 L 9.192397,81.557043 C 8.0100262,81.557065 7.4188423,82.155544 7.4188437,83.352479"
       id="text5058" />
    <path
       style="font-size:182.7288208px;font-style:normal;font-variant:normal;font-weight:bold;font-stretch:normal;fill:none;fill-opacity:1;stroke:url(#radialGradient2463);stroke-width:6;stroke-linecap:butt;stroke-linejoin:miter;stroke-miterlimit:4;stroke-opacity:1;font-family:Sidux"
       d="M 7.4188437,83.352479 L 7.4188437,102.20456 C 7.4188423,103.40151 8.0100262,103.99999 9.192397,103.99999 L 68.606431,103.99999 C 72.744656,103.99999 76.114403,102.98258 78.715685,100.94775 C 81.316822,98.793235 83.326846,96.279627 84.745767,93.406921 C 87.346896,88.379716 88.647501,83.053261 88.647583,77.42754 C 88.647501,70.964003 88.115435,65.637548 87.051385,61.448158 C 85.987174,57.258854 84.390977,53.967225 82.262792,51.57326 C 80.134453,49.059705 77.355889,47.26427 73.927092,46.186951 C 70.616393,45.109749 66.596344,44.571118 61.866929,44.571059 L 37.923959,44.571059 C 32.603273,44.571118 29.942946,42.177206 29.94297,37.389315 C 29.942946,32.840948 32.603273,30.56673 37.923959,30.566657 L 82.972212,30.566657 C 84.154504,30.56673 84.745687,29.968253 84.745767,28.771221 L 84.745767,10.098685 C 84.745687,8.7821278 84.154504,8.1238019 82.972212,8.123706 L 43.776685,8.123706 C 37.510099,8.1238019 32.189444,8.5427365 27.814706,9.3805113 C 18.946927,10.816953 13.212444,15.125996 10.61124,22.307651 C 9.1923938,26.137993 8.4829732,31.105361 8.4829757,37.209771 C 8.4829732,46.067314 10.256524,52.889964 13.803636,57.677743 C 15.577179,60.191397 17.941915,62.166375 20.897848,63.602681 C 23.971989,65.03907 27.696448,65.757244 32.071234,65.757205 L 59.206599,65.757205 C 64.17249,65.757244 66.655462,68.151156 66.655523,72.938949 C 66.655462,78.68437 64.17249,81.557065 59.206599,81.557043 L 9.192397,81.557043 C 8.0100262,81.557065 7.4188423,82.155544 7.4188437,83.352479"
       id="text5054" />
    <path
       style="font-size:182.7288208px;font-style:normal;font-variant:normal;font-weight:bold;font-stretch:normal;fill:#cccccc;fill-opacity:1;stroke:none;stroke-width:6;stroke-linecap:butt;stroke-linejoin:miter;stroke-miterlimit:4;stroke-opacity:1;font-family:Sidux"
       d="M 7.1343661,82.882251 L 7.1343661,101.73433 C 7.1343648,102.93129 7.7255485,103.52977 8.9079194,103.52977 L 68.321954,103.52977 C 72.460178,103.52977 75.829926,102.51236 78.431207,100.47752 C 81.032343,98.323007 83.042369,95.809399 84.461288,92.936694 C 87.062418,87.909488 88.363023,82.583033 88.363106,76.957311 C 88.363023,70.493775 87.830958,65.16732 86.766908,60.97793 C 85.702696,56.788626 84.106499,53.496996 81.978314,51.103032 C 79.849976,48.589476 77.071412,46.794042 73.642613,45.716724 C 70.331916,44.63952 66.311866,44.100891 61.582452,44.10083 L 37.639482,44.10083 C 32.318796,44.100891 29.658469,41.706977 29.658493,36.919086 C 29.658469,32.37072 32.318796,30.096503 37.639482,30.09643 L 82.687735,30.09643 C 83.870026,30.096503 84.46121,29.498025 84.461288,28.300993 L 84.461288,9.6284575 C 84.46121,8.3118996 83.870026,7.6535736 82.687735,7.6534778 L 43.492208,7.6534778 C 37.225621,7.6535736 31.904967,8.0725084 27.530229,8.910283 C 18.662449,10.346725 12.927966,14.655767 10.326762,21.837423 C 8.9079162,25.667764 8.1984956,30.635133 8.1984981,36.739543 C 8.1984956,45.597086 9.972047,52.419736 13.519158,57.207515 C 15.292701,59.721169 17.657437,61.696146 20.613371,63.132454 C 23.687512,64.568841 27.41197,65.287015 31.786756,65.286977 L 58.922122,65.286977 C 63.888013,65.287015 66.370985,67.680928 66.371045,72.468722 C 66.370985,78.214142 63.888013,81.086837 58.922122,81.086815 L 8.9079194,81.086815 C 7.7255485,81.086837 7.1343648,81.685315 7.1343661,82.882251"
       id="text7214" />
    <path
       style="font-size:182.7288208px;font-style:normal;font-variant:normal;font-weight:bold;font-stretch:normal;fill:#666666;fill-opacity:1;stroke:none;stroke-width:12;stroke-linecap:butt;stroke-linejoin:miter;stroke-miterlimit:4;stroke-dasharray:none;stroke-opacity:1;font-family:Sidux;-inkscape-font-specification:Sidux Bold"
       d="M 43.952697,2.630123 C 37.470259,2.630223 31.925919,3.086568 27.234485,3.972065 C 17.519305,5.523144 10.503449,10.64535 7.508261,18.795838 C 5.885394,23.113965 5.165175,28.379265 5.165179,34.71189 C 5.267678,29.009494 6.008852,24.189824 7.508261,20.200196 C 10.503449,12.04971 17.519305,6.927501 27.234485,5.376422 C 31.925919,4.49092 37.470259,4.034578 43.952697,4.03448 L 83.690113,4.03448 C 84.842939,4.034572 86.26265,4.46372 87.2364,5.532462 C 88.21015,6.601205 88.50286,7.91363 88.50293,9.027752 L 88.50293,7.623394 C 88.50286,6.509272 88.21015,5.196844 87.2364,4.128104 C 86.26265,3.059375 84.842939,2.630213 83.690113,2.630123 L 43.952697,2.630123 z M 32.965538,35.61692 C 32.948262,35.833628 32.933874,36.040273 32.933875,36.303495 C 32.933866,38.129027 33.346831,38.860693 33.9471,39.393081 C 34.547369,39.925469 35.752044,40.422966 38,40.422944 L 62.285736,40.422944 C 67.30426,40.423006 71.640896,40.998102 75.394334,42.201796 C 79.334731,43.422054 82.638886,45.487497 85.178287,48.443385 C 87.75328,51.298304 89.55466,55.034477 90.71936,59.553413 C 91.80538,63.767798 92.35568,68.852719 92.42918,74.845306 C 92.4291,68.223023 91.89079,62.694891 90.71936,58.149056 C 89.55466,53.63012 87.75328,49.893946 85.178287,47.039028 C 82.638886,44.083139 79.334731,42.017696 75.394334,40.797439 C 71.640896,39.593745 67.30426,39.018646 62.285736,39.018586 L 38,39.018586 C 35.752044,39.018609 34.547369,38.521108 33.9471,37.988724 C 33.440063,37.539024 33.069292,36.890127 32.965538,35.61692 z M 62.637262,71.037937 C 62.548946,73.029803 62.100747,74.229492 61.56071,74.845306 C 60.960065,75.530232 60.081403,76.000008 58.141076,76 L 8.901446,76 C 7.798936,76.000018 6.430052,76.301411 5.418485,77.310734 C 4.406918,78.320056 4.088626,79.705954 4.088627,80.806023 L 4.088627,82.210381 C 4.088626,81.110311 4.406918,79.724413 5.418485,78.715091 C 6.430052,77.705768 7.798936,77.404375 8.901446,77.404357 L 58.141076,77.404357 C 60.081403,77.404365 60.960065,76.93459 61.56071,76.249664 C 62.161354,75.564738 62.668899,74.216178 62.668925,71.786928 C 62.668921,71.500429 62.654743,71.277618 62.637262,71.037937 z"
       id="path7257"
       sodipodi:nodetypes="ccccccccsccscccssccccscsccccsccsccsccsccssc" />
    <path
       sodipodi:nodetypes="cscccccccscccsccccccccccccccccccsccsccccccsc"
       style="font-size:182.7288208px;font-style:normal;font-variant:normal;font-weight:bold;font-stretch:normal;fill:#000000;fill-opacity:1;stroke:none;stroke-width:12;stroke-linecap:butt;stroke-linejoin:miter;stroke-miterlimit:4;stroke-dasharray:none;stroke-opacity:1;font-family:Sidux;-inkscape-font-specification:Sidux Bold"
       d="M 90.25029,26.59375 C 90.25018,28.198286 89.76939,30.465354 88.08729,32.1875 C 86.4052,33.909644 84.185403,34.437596 82.617999,34.4375 L 38.029355,34.4375 C 36.856432,34.437517 36.291719,34.601007 36.051757,34.6875 C 36.052796,34.764103 34.5,35.5 34.5,36.5 C 35.5,36 36.094652,35.984455 36.113557,36.09375 C 36.371199,36.004997 36.909293,35.843766 38.029355,35.84375 L 82.617999,35.84375 C 84.185403,35.843849 86.4052,35.315894 88.08729,33.59375 C 89.76939,31.871607 90.25018,29.604536 90.25029,28 L 90.25029,26.59375 z M 3.019699,35.5 C 3.016307,35.815704 3.019699,36.117202 3.019699,36.4375 C 3.019699,46.110833 4.923156,54.282661 9.477791,60.5 L 9.477791,60.53125 C 14.609369,67.484807 22.933117,71.000044 32.281962,71 L 59.072229,71 C 59.904857,71.000006 60.5,71 61.5,71.5 C 61.5,70.5 61,70 60.493627,69.75 C 60.31507,69.69564 59.904857,69.593756 59.072229,69.59375 L 32.281962,69.59375 C 22.933117,69.593794 14.609369,66.078557 9.477791,59.125 L 9.477791,59.09375 C 4.998681,52.979502 3.081973,44.963844 3.019699,35.5 z M 94.08188,75.6875 C 94.01197,82.083421 92.52099,88.19962 89.60139,93.90625 C 87.81749,97.5588 85.28297,100.79095 82.1236,103.4375 L 82.0618,103.5 L 82,103.53125 C 78.230768,106.51309 73.419679,107.84375 68.373117,107.84375 L 9.63229,107.84375 C 8.064975,107.84375 5.814202,107.34715 4.132097,105.625 C 2.449992,103.90286 2.00001,101.60463 2,100 L 2,101.40625 C 2.00001,103.01088 2.449992,105.30911 4.132097,107.03125 C 5.814202,108.7534 8.064975,109.25 9.63229,109.25 L 68.373117,109.25 C 73.419679,109.25 78.230768,107.91934 82,104.9375 L 82.0618,104.90625 L 82.1236,104.84375 C 85.28297,102.1972 87.81749,98.96505 89.60139,95.3125 C 92.59285,89.46541 94.08179,83.192588 94.08188,76.625 C 94.08188,76.306352 94.08409,76.001584 94.08188,75.6875 z"
       id="path7264" />
    <path
       style="fill:url(#radialGradient2485);fill-opacity:1;stroke:none;stroke-width:6.52500009999999975;stroke-linecap:round;stroke-linejoin:round;stroke-miterlimit:4;stroke-dashoffset:4;stroke-opacity:1"
       d="M 43.5 7.65625 C 37.233415 7.6563455 31.905988 8.0684751 27.53125 8.90625 C 18.663469 10.342692 12.913703 14.662094 10.3125 21.84375 C 8.8936532 25.674091 8.1874977 30.645591 8.1875 36.75 C 8.1874981 45.607542 9.9841392 52.430971 13.53125 57.21875 C 15.304794 59.732404 17.669065 61.688693 20.625 63.125 C 23.699141 64.561388 27.406464 65.281289 31.78125 65.28125 L 58.9375 65.28125 C 63.90339 65.281286 66.374939 67.680957 66.375 72.46875 C 66.374937 78.214173 63.903391 81.093772 58.9375 81.09375 L 8.90625 81.09375 C 7.7238782 81.093772 7.1249986 81.678065 7.125 82.875 L 7.125 101.71875 C 7.1249986 102.91571 7.7238793 103.53125 8.90625 103.53125 L 68.3125 103.53125 C 72.450725 103.53125 75.836215 102.50358 78.4375 100.46875 C 81.038627 98.314235 83.049832 95.810206 84.46875 92.9375 C 87.069883 87.910296 88.374915 82.59447 88.375 76.96875 C 88.374919 70.505211 87.845305 65.158138 86.78125 60.96875 C 85.71704 56.779443 84.096938 53.487714 81.96875 51.09375 C 79.840412 48.580194 77.085046 46.796069 73.65625 45.71875 C 70.34555 44.641546 66.323164 44.093809 61.59375 44.09375 L 37.625 44.09375 C 32.304315 44.09381 29.656226 41.694141 29.65625 36.90625 C 29.656226 32.357883 32.304314 30.093824 37.625 30.09375 L 82.6875 30.09375 C 83.869785 30.093825 84.468678 29.509529 84.46875 28.3125 L 84.46875 9.625 C 84.468673 8.3084412 83.869784 7.6563474 82.6875 7.65625 L 43.5 7.65625 z "
       id="rect5006" />
    <path
       style="opacity:0.46551723000000000;fill:url(#radialGradient2478);fill-opacity:1;fill-rule:evenodd;stroke:none;stroke-width:1px;stroke-linecap:butt;stroke-linejoin:miter;stroke-opacity:1"
       d="M 43.5 7.65625 C 37.233415 7.6563455 31.905988 8.0684751 27.53125 8.90625 C 18.663469 10.342692 12.913703 14.662094 10.3125 21.84375 C 8.8936532 25.674091 8.1874977 30.645591 8.1875 36.75 C 8.1874992 40.260136 8.4698202 43.44135 9.03125 46.3125 C 14.133631 46.445236 19.16847 46.830331 24.125 47.40625 C 25.19768 47.80978 27.442949 45.109426 30.59375 40.96875 C 29.974019 39.89072 29.656242 38.542775 29.65625 36.90625 C 29.656226 32.357883 32.304314 30.093824 37.625 30.09375 L 38.875 30.09375 C 45.277246 21.904062 53.237526 12.820099 61.9375 7.65625 L 43.5 7.65625 z M 84.46875 21.75 C 82.024371 22.319886 79.597891 22.946364 77.1875 23.71875 C 73.72799 24.827316 70.463517 27.09314 67.34375 30.09375 L 82.6875 30.09375 C 83.869785 30.093825 84.468678 29.509529 84.46875 28.3125 L 84.46875 21.75 z M 56.3125 44.09375 C 54.613265 46.692413 52.947701 49.384572 51.28125 52.15625 C 63.076676 54.742011 74.726102 57.741133 86.5625 60.1875 C 85.49995 56.372 83.961417 53.335268 81.96875 51.09375 C 79.840412 48.580194 77.085046 46.796069 73.65625 45.71875 C 70.34555 44.641546 66.323164 44.093809 61.59375 44.09375 L 56.3125 44.09375 z "
       id="path5008" />
    <path
       style="opacity:0.16810345;fill:url(#radialGradient2493);fill-opacity:1;fill-rule:evenodd;stroke:none;stroke-width:1px;stroke-linecap:butt;stroke-linejoin:miter;stroke-opacity:1"
       d="M 43.5,7.65625 C 37.23341,7.6563455 31.90599,8.0684751 27.53125,8.90625 C 18.663469,10.342692 12.913703,14.662094 10.3125,21.84375 C 8.893653,25.674091 8.187498,30.645591 8.1875,36.75 C 8.1875,37.599112 8.217019,38.407025 8.25,39.21875 C 22.36265,30.076677 42.8223,14.96224 59.59375,7.65625 L 43.5,7.65625 z M 84.46875,21.75 C 82.02437,22.319886 79.59789,22.946364 77.1875,23.71875 C 74.84936,24.467984 73.63954,26.877229 73.34375,30.09375 L 82.6875,30.09375 C 83.86978,30.093825 84.46868,29.509529 84.46875,28.3125 L 84.46875,21.75 z M 77.21875,47.21875 C 79.50262,52.064784 82.6224,56.45361 86.1875,58.96875 C 85.14708,55.722581 83.74398,53.09068 81.96875,51.09375 C 80.63854,49.522777 79.05016,48.225378 77.21875,47.21875 z"
       id="path5024" />
    <g
       style="opacity:1"
       id="g7090"
       transform="translate(-97.850746,10.955224)">
      <g
         transform="translate(155.93921,-98.849048)"
         id="g5807">
        <circle
           transform="matrix(-0.858425,0.2300143,-0.2300143,-0.858425,350.93869,181.44916)"
           id="circle4274"
           ry="8.0010004"
           cy="92"
           cx="343.99899"
           rx="8.0010004"
           r="36"
           style="opacity:0.5;fill:#000000;fill-opacity:1;filter:url(#filter4292)"
           sodipodi:cx="343.99899"
           sodipodi:cy="92"
           sodipodi:rx="36"
           sodipodi:ry="36" />
        <circle
           sodipodi:ry="36"
           sodipodi:rx="36"
           sodipodi:cy="92"
           sodipodi:cx="343.99899"
           style="fill:url(#linearGradient7136);fill-opacity:1"
           r="36"
           rx="8.0010004"
           cx="343.99899"
           cy="92"
           ry="8.0010004"
           id="circle3581_2_"
           transform="matrix(-0.858425,0.2300143,-0.2300143,-0.858425,351.26799,178.81461)" />
        <circle
           transform="matrix(-0.6438188,0.1725107,-0.1725107,-0.6438188,272.15336,178.85201)"
           id="circle4383"
           ry="8.0010004"
           cy="92"
           cx="343.99899"
           rx="8.0010004"
           r="36"
           style="fill:url(#radialGradient7138);fill-opacity:1"
           sodipodi:cx="343.99899"
           sodipodi:cy="92"
           sodipodi:rx="36"
           sodipodi:ry="36" />
        <circle
           clip-path="url(#clipPath5163)"
           transform="matrix(-0.858425,-0.2300143,-0.2300143,0.858425,351.26799,179.11375)"
           id="circle4776"
           ry="8.0010004"
           cy="92"
           cx="343.99899"
           rx="8.0010004"
           r="36"
           style="opacity:0.8;fill:none;fill-opacity:1;stroke:url(#linearGradient7140);stroke-width:6.75138187;stroke-miterlimit:4;stroke-dasharray:none;stroke-opacity:1;filter:url(#filter7317)"
           sodipodi:cx="343.99899"
           sodipodi:cy="92"
           sodipodi:rx="36"
           sodipodi:ry="36" />
        <path
           style="opacity:0.8;fill:url(#linearGradient7142);fill-opacity:1"
           d="M 34.809378,151.11237 C 23.463662,151.11237 13.983283,159.12398 11.698264,169.79059 C 16.252925,174.03648 24.895157,176.9017 34.809378,176.9017 C 44.723611,176.9017 53.365831,174.03648 57.920491,169.79059 C 55.635481,159.12398 46.155091,151.11237 34.809378,151.11237 z"
           id="circle16776" />
        <g
           id="g6850"
           transform="translate(-87.19068,142.96419)">
          <path
             sodipodi:nodetypes="ccccccccccccc"
             style="fill:none;fill-opacity:1;fill-rule:evenodd;stroke:url(#linearGradient7144);stroke-width:4;stroke-linecap:round;stroke-linejoin:round;stroke-miterlimit:4;stroke-opacity:1;filter:url(#filter5943)"
             d="M 118.00003,15.999997 L 118.00003,31.999997 L 102.00003,31.999997 L 102.00003,39.999997 L 118.00003,39.999997 L 118.00003,55.999997 L 126.00003,55.999997 L 126.00003,39.999997 L 142.00003,39.999997 L 142.00003,31.999997 L 126.00003,31.999997 L 126.00003,15.999997 L 118.00003,15.999997 z"
             id="path4123" />
          <path
             sodipodi:nodetypes="ccccccccccccc"
             id="rect3232"
             d="M 118.00003,15.999997 L 118.00003,31.999997 L 102.00003,31.999997 L 102.00003,39.999997 L 118.00003,39.999997 L 118.00003,55.999997 L 126.00003,55.999997 L 126.00003,39.999997 L 142.00003,39.999997 L 142.00003,31.999997 L 126.00003,31.999997 L 126.00003,15.999997 L 118.00003,15.999997 z"
             style="fill:#ffffff;fill-opacity:1;fill-rule:evenodd;stroke:none;stroke-width:4;stroke-linecap:round;stroke-linejoin:round;stroke-miterlimit:4;stroke-opacity:1" />
        </g>
      </g>
    </g>
  </g>
</svg>
